<?xml version="1.0" encoding="UTF-8" standalone="no"?>
<!-- Created with Inkscape (http://www.inkscape.org/) -->

<svg
   width="300"
   height="200"
   viewBox="0 0 79.375 52.916666"
   version="1.1"
   id="svg1"
   xml:space="preserve"
   xmlns="http://www.w3.org/2000/svg"
   xmlns:svg="http://www.w3.org/2000/svg"><defs
     id="defs1" /><g
     id="layer1"
     transform="translate(-273.97836,-20.845522)"><rect
       style="fill:#ef4444;fill-opacity:1;stroke-width:0.0515193;stroke-linecap:round;stroke-linejoin:round"
       id="rect2"
       width="79.375"
       height="52.916668"
       x="95.228355"
       y="20.845522" /><path
       style="fill:#ffffff;stroke-width:0.379208"
       d="m 133.99714,48.592387 c -1.66847,-0.31441 -3.12843,-1.227268 -4.22403,-2.641129 -1.34858,-1.740364 -1.89066,-4.102591 -1.40042,-6.102838 0.49207,-2.007819 1.91474,-4.352083 3.98859,-6.57239 0.57071,-0.611007 0.90411,-0.891763 1.05902,-0.891763 0.32749,0 0.84928,0.465459 1.94349,1.733651 l 0.96595,1.119565 0.29855,-0.381973 c 0.59857,-0.765859 1.02015,-1.14634 1.27018,-1.14634 0.32148,0 1.30066,1.065961 2.07463,2.258472 0.69482,1.070558 1.47633,2.753828 1.74775,3.764407 0.48367,1.800924 0.0544,4.148288 -1.06484,5.822729 -0.80566,1.205309 -2.29662,2.356984 -3.60232,2.78258 -0.88041,0.286964 -2.27124,0.403012 -3.05655,0.255029 z m 2.65247,-3.305159 c 0.72454,-0.337103 1.33132,-0.947371 1.6319,-1.641284 0.43129,-0.995662 0.20279,-2.862645 -0.38414,-3.138576 -0.23571,-0.110821 -0.28662,-0.07843 -0.82353,0.523904 -0.82206,0.92223 -0.87112,0.905104 -2.14368,-0.748543 -0.56077,-0.728696 -1.12685,-1.367665 -1.25794,-1.419929 -0.29438,-0.117356 -0.48901,0.04615 -1.08361,0.910349 -0.86422,1.256063 -1.09042,1.985233 -0.93157,3.002995 0.28924,1.853077 1.62614,2.902232 3.59815,2.823691 0.60495,-0.02413 0.93182,-0.09737 1.39442,-0.312607 z"
       id="path3" /><path
       d="m 114.75454,63.753009 h 1.04092 c 0.51195,0 0.92149,0.409541 0.92149,0.921464 0,0.511925 -0.40954,0.912934 -0.92149,0.912934 h -1.04092 z m -1.6808,4.982735 h 1.6808 V 67.03786 h 1.04946 c 1.27129,0 2.32072,-1.057978 2.32072,-2.346322 0,-1.296876 -1.05797,-2.354853 -2.35483,-2.354853 h -2.69615 z m 5.82741,-3.190998 c 0,1.766142 1.42485,3.190998 3.19099,3.190998 1.76614,0 3.19953,-1.424856 3.19953,-3.190998 0,-1.76614 -1.43339,-3.208061 -3.19953,-3.208061 -1.76614,0 -3.19099,1.441921 -3.19099,3.208061 z m 4.71823,-0.0085 c 0,0.836145 -0.68255,1.527243 -1.52724,1.527243 -0.83615,0 -1.5187,-0.691098 -1.5187,-1.527243 0,-0.844675 0.68255,-1.527242 1.5187,-1.527242 0.84469,0 1.52724,0.682567 1.52724,1.527242 z m 4.52201,-1.783205 h 1.04092 c 0.51193,0 0.92146,0.409542 0.92146,0.921467 0,0.511923 -0.40953,0.912932 -0.92146,0.912932 h -1.04092 z m -1.68081,4.982736 h 1.68081 v -1.697884 h 1.04946 c 1.27126,0 2.32071,-1.057977 2.32071,-2.346321 0,-1.296877 -1.05798,-2.354855 -2.35485,-2.354855 h -2.69613 z m 7.6362,-6.39906 h -1.68935 v 3.873564 c 0,1.407795 1.1177,2.525496 2.52551,2.525496 1.39072,0 2.52548,-1.117701 2.52548,-2.525496 v -3.873564 h -1.68935 v 3.847968 c 0,0.460733 -0.37542,0.836145 -0.83613,0.836145 -0.46074,0 -0.83616,-0.375412 -0.83616,-0.836145 z m 4.64145,6.39906 h 3.98448 v -1.689351 h -2.30367 v -4.709709 h -1.68081 z m 6.44172,0 0.38393,-0.836144 h 2.61936 l 0.39248,0.836144 h 1.68081 l -3.01182,-6.39906 h -0.75935 l -2.98623,6.39906 z m 1.69789,-3.660261 0.64843,1.407792 h -1.30541 z m 9.88014,3.660261 -1.35659,-2.320725 c 0.46073,-0.426605 0.75936,-1.040914 0.75936,-1.72348 0,-1.296877 -1.05798,-2.354855 -2.35487,-2.354855 h -2.69613 v 6.39906 h 1.68083 v -1.697884 h 1.04091 l 0.98972,1.697884 z m -3.9674,-4.982735 h 1.04091 c 0.51192,0 0.92146,0.409542 0.92146,0.921466 0,0.511923 -0.40954,0.912933 -0.92146,0.912933 h -1.04091 z"
       id="text1"
       style="font-size:11.6387px;font-family:'Big John';-inkscape-font-specification:'Big John, Normal';fill:#ffffff;stroke-width:1.22081;stroke-linecap:round;stroke-linejoin:round"
       aria-label="Popular" /><rect
       style="fill:#ef4444;fill-opacity:1;stroke-width:0.0515193;stroke-linecap:round;stroke-linejoin:round"
       id="rect2-5"
       width="79.375"
       height="52.916668"
       x="184.60335"
       y="20.845522" /><path
       d="m 222.27584,35.431318 c 0.44562,0.541116 0.98674,0.983558 1.5756,1.34324 0.8244,0.502919 1.70929,0.824405 2.47322,1.005838 v -1.002655 c -0.70664,-0.964458 -1.20956,-2.14218 -1.25412,-3.526798 -0.0127,-0.359683 -0.23873,-0.684352 -0.58568,-0.77666 -0.24191,-0.06366 -0.50292,-0.0064 -0.66843,0.184616 -0.42335,0.490187 -1.04085,1.419631 -1.54059,2.775603 z m 5.06739,1.511941 v 0.974007 c 0,0 0,0 0,0 v 0.04138 c 0,0 0,0 0,0 v 1.021752 c -1.93529,-0.162335 -5.88861,-1.394168 -6.98039,-5.003726 -0.10504,-0.343767 -0.40743,-0.598409 -0.76711,-0.598409 -0.25146,0 -0.48701,0.124138 -0.59841,0.350132 -0.35014,0.728914 -0.82122,2.199476 -0.82122,4.233433 0,3.720962 2.5496,5.74537 3.7687,6.455186 l -4.41168,1.203186 c -0.16233,0.04456 -0.29284,0.165517 -0.34695,0.324669 -0.0541,0.159152 -0.0255,0.337402 0.0732,0.471089 0.58886,0.783026 2.35863,2.240853 4.991,2.240853 0.11458,0 0.22917,-0.0382 0.3183,-0.111406 l 2.40637,-1.925735 h 2.36817 c 2.8138,0 5.09285,-2.27905 5.09285,-5.092849 v -5.092846 l 0.95173,-1.429182 c 0.0414,-0.06366 0.0668,-0.140052 0.0668,-0.216445 0,-0.216446 -0.17507,-0.391513 -0.39151,-0.391513 h -3.17349 c -1.40689,0 -2.54642,1.139525 -2.54642,2.546425 z m 2.54642,-0.509285 a 0.50928511,0.50928511 0 1 1 0,1.01857 0.50928511,0.50928511 0 1 1 0,-1.01857 z"
       id="path1"
       style="fill:#ffffff;stroke-width:0.0318303" /><path
       d="m 195.79671,68.765953 h 4.12048 V 67.39229 h -2.37854 v -1.177426 h 2.10444 v -1.416323 h -2.10444 V 63.75763 h 2.37854 v -1.390729 h -4.12048 z m 6.66705,0 0.39792,-0.836143 h 2.71454 l 0.40676,0.836143 h 1.74192 l -3.1213,-6.399052 h -0.78698 l -3.09478,6.399052 z m 1.75961,-3.660258 0.67202,1.407792 h -1.35287 z m 10.23933,3.660258 -1.40593,-2.320724 c 0.47748,-0.426603 0.78696,-1.040911 0.78696,-1.723476 0,-1.296876 -1.09643,-2.354852 -2.44045,-2.354852 h -2.79415 v 6.399052 h 1.7419 v -1.697884 h 1.07878 l 1.0257,1.697884 z m -4.11167,-4.982727 h 1.07878 c 0.53051,0 0.95496,0.409539 0.95496,0.921461 0,0.511925 -0.42445,0.912933 -0.95496,0.912933 h -1.07878 z m 4.96937,4.982727 h 4.12932 v -1.68935 h -2.38741 v -4.709702 h -1.74191 z m 10.92017,-6.399052 h -2.00718 l -1.28214,2.133017 -1.27328,-2.133017 h -2.00718 l 2.42276,4.0442 v 2.354852 h 1.72425 v -2.354852 z m 6.47252,5.016855 v -1.109167 h 1.16718 c 0.30063,0 0.57474,0.247429 0.57474,0.554583 0,0.307154 -0.25642,0.554584 -0.57474,0.554584 z m 0,-2.516959 V 63.75763 h 0.84001 c 0.31833,0 0.57476,0.247429 0.57476,0.554584 0,0.307154 -0.25643,0.554583 -0.57476,0.554583 z m 1.52971,3.899156 c 1.05223,0 1.9453,-0.86174 1.9453,-1.877056 0,-0.580179 -0.30064,-1.1177 -0.7516,-1.467516 0.25643,-0.315686 0.42444,-0.716694 0.42444,-1.151828 0,-1.023848 -0.90193,-1.902652 -1.96298,-1.902652 h -2.92679 v 6.399052 z m 2.97982,0 h 1.74192 v -6.399052 h -1.74192 z m 8.93067,0 -1.40592,-2.320724 c 0.47748,-0.426603 0.78696,-1.040911 0.78696,-1.723476 0,-1.296876 -1.09642,-2.354852 -2.44044,-2.354852 h -2.79416 v 6.399052 h 1.74193 v -1.697884 h 1.07876 l 1.02569,1.697884 z m -4.11163,-4.982727 h 1.07876 c 0.53053,0 0.95494,0.409539 0.95494,0.921461 0,0.511925 -0.42441,0.912933 -0.95494,0.912933 h -1.07876 z m 4.96935,4.982727 h 2.45814 c 1.83033,0 3.31584,-1.433388 3.31584,-3.199526 0,-1.766138 -1.48551,-3.199526 -3.31584,-3.199526 h -2.45814 z m 1.73307,-4.684105 h 0.73391 c 0.86654,0 1.57392,0.682565 1.57392,1.510176 0,0.836143 -0.70738,1.518708 -1.57392,1.518708 h -0.73391 z"
       id="text1-3"
       style="font-size:10.2727px;font-family:'Big John';-inkscape-font-specification:'Big John, Normal';fill:#ffffff;stroke-width:1.2428;stroke-linecap:round;stroke-linejoin:round"
       aria-label="EARLY BIRD" /><rect
       style="fill:#ef4444;fill-opacity:1;stroke-width:0.0515193;stroke-linecap:round;stroke-linejoin:round"
       id="rect2-2"
       width="79.375"
       height="52.916668"
       x="5.8533564"
       y="20.845522" /><path
       d="m 52.014129,35.668884 c -0.908405,0 -1.642303,-0.733907 -1.642303,-1.642309 0,-0.908403 0.733898,-1.642308 1.642303,-1.642308 h 8.211542 c 0.908405,0 1.642316,0.733905 1.642316,1.642308 v 8.211544 c 0,0.908401 -0.733911,1.642308 -1.642316,1.642308 -0.908393,0 -1.642303,-0.733907 -1.642303,-1.642308 v -4.244341 l -8.693972,8.688838 c -0.641534,0.641527 -1.683368,0.641527 -2.324889,0 l -5.404222,-5.404221 -7.051668,7.04653 c -0.641522,0.641526 -1.683368,0.641526 -2.32489,0 -0.641534,-0.641527 -0.641534,-1.683367 0,-2.324894 l 8.211542,-8.211542 c 0.641521,-0.641527 1.683368,-0.641527 2.324889,0 l 5.409352,5.409353 7.528968,-7.528958 z"
       id="path1-2"
       style="fill:#ffffff;stroke-width:0.0513221" /><path
       d="m 22.202327,64.008139 h 1.660039 v 4.724741 h 1.677074 v -4.724741 h 1.694096 v -1.668557 h -5.031209 z m 11.824625,4.724741 -1.35358,-2.31555 c 0.459706,-0.425651 0.757666,-1.03859 0.757666,-1.719634 0,-1.293982 -1.055618,-2.3496 -2.3496,-2.3496 h -2.690123 v 6.384784 h 1.677068 v -1.694097 h 1.03859 l 0.987514,1.694097 z m -3.958569,-4.971619 h 1.03859 c 0.510788,0 0.919409,0.408626 0.919409,0.919409 0,0.510783 -0.408621,0.910897 -0.919409,0.910897 h -1.03859 z m 4.784339,4.971619 h 3.967076 v -1.370601 h -2.290009 v -1.1748 h 2.026105 v -1.413166 h -2.026105 v -1.038592 h 2.290009 v -1.387625 h -3.967076 z m 10.547664,0 v -6.384784 h -1.677068 v 3.013618 L 40.701187,62.348096 H 40.02014 v 6.384784 h 1.677074 v -3.022132 l 3.013619,3.022132 z m 1.285482,0 h 2.36662 c 1.762208,0 3.192398,-1.430192 3.192398,-3.192393 0,-1.7622 -1.43019,-3.192391 -3.192398,-3.192391 h -2.36662 z m 1.668553,-4.673662 h 0.706581 c 0.834285,0 1.515323,0.681044 1.515323,1.506809 0,0.834278 -0.681038,1.515322 -1.515323,1.515322 h -0.706581 z m 5.039723,4.673662 h 1.677067 v -6.384784 h -1.677067 z m 8.342788,0 v -6.384784 h -1.677075 v 3.013618 l -3.022132,-3.013618 h -0.681039 v 6.384784 h 1.677067 v -3.022132 l 3.013618,3.022132 z m 3.950062,-3.430758 v 1.123722 h 1.234391 c -0.263904,0.383088 -0.732123,0.629965 -1.234391,0.629965 -0.783199,0 -1.506809,-0.638479 -1.506809,-1.515322 0,-0.876844 0.706582,-1.515321 1.506809,-1.515321 0.434163,0 0.791715,0.17026 1.064133,0.425652 l 1.183314,-1.174801 c -0.578886,-0.570374 -1.3706,-0.927921 -2.247447,-0.927921 -1.7622,0 -3.183876,1.430191 -3.183876,3.192391 0,1.762201 1.421676,3.192393 3.183876,3.192393 1.7622,0 3.192391,-1.430192 3.192391,-3.192393 v -0.238365 z"
       id="text1-8"
       style="font-size:11.6387px;font-family:'Big John';-inkscape-font-specification:'Big John, Normal';fill:#ffffff;stroke-width:1.21808;stroke-linecap:round;stroke-linejoin:round"
       aria-label="TRENDING" /><rect
       style="fill:#ef4444;fill-opacity:1;stroke-width:0.0515193;stroke-linecap:round;stroke-linejoin:round"
       id="rect2-8"
       width="79.375"
       height="52.916668"
       x="273.97836"
       y="20.845516" /><path
       d="m 310.95585,33.101286 c -0.47989,-0.44602 -1.12351,-0.717019 -1.82924,-0.717019 -1.48485,0 -2.68741,1.202559 -2.68741,2.68741 0,0.530707 0.15525,1.024717 0.42061,1.442506 z m 2.71,13.736276 c 1.41992,0 2.73257,-0.468602 3.78834,-1.259016 l 0.99366,0.993664 c 0.35287,0.352864 0.92592,0.352864 1.27878,0 0.35287,-0.352864 0.35287,-0.925914 0,-1.278778 l -0.99366,-0.993664 c 0.79041,-1.055768 1.25902,-2.365598 1.25902,-3.788345 -0.002,-3.489116 -2.83421,-6.320494 -6.32614,-6.320494 -3.49194,0 -6.32332,2.831378 -6.32332,6.323318 0,1.419923 0.4686,2.732575 1.25902,3.788343 l -0.99367,0.993665 c -0.35286,0.352863 -0.35286,0.925914 0,1.278777 0.35287,0.352865 0.92592,0.352865 1.27878,0 l 0.99367,-0.993663 c 1.05576,0.790414 2.36559,1.259017 3.78552,1.259017 z m 6.80604,-10.320555 c 0.26535,-0.417792 0.42061,-0.914623 0.42061,-1.44533 0,-1.484851 -1.20257,-2.68741 -2.68741,-2.68741 -0.70573,0 -1.34936,0.270999 -1.82925,0.717019 z m -6.12855,1.061413 v 2.656358 l 1.1574,1.157393 c 0.26536,0.265354 0.26536,0.694436 0,0.956966 -0.26536,0.26253 -0.69443,0.265354 -0.95697,0 l -1.355,-1.354996 c -0.12703,-0.127031 -0.1976,-0.299229 -0.1976,-0.479894 V 37.57842 c 0,-0.375447 0.30206,-0.677497 0.6775,-0.677497 0.37545,0 0.6775,0.30205 0.6775,0.677497 z"
       id="path1-0"
       style="fill:#ffffff;stroke-width:0.028229" /><path
       d="m 284.05272,68.770001 h 3.80816 v -1.689237 h -2.20172 v -4.709387 h -1.60644 z m 4.94979,0 h 1.60643 v -6.398624 h -1.60643 z m 3.56351,-6.398624 h -0.72574 v 6.398624 h 1.61459 v -3.276097 l 1.60644,1.518607 1.5983,-1.527137 v 3.284627 h 1.61459 v -6.398624 h -0.72576 l -2.48713,2.371757 z m 6.93135,6.398624 h 1.60645 v -6.398624 h -1.60645 z m 2.7073,-4.734981 h 1.59013 v 4.734981 h 1.60645 V 64.03502 h 1.62274 v -1.672175 h -4.81932 z m 5.92835,4.734981 h 3.79999 V 67.39643 h -2.19357 v -1.177347 h 1.94078 v -1.416229 h -1.94078 v -1.040843 h 2.19357 v -1.390634 h -3.79999 z m 4.94979,0 h 2.26694 c 1.68798,0 3.05795,-1.433292 3.05795,-3.199312 0,-1.76602 -1.36997,-3.199312 -3.05795,-3.199312 h -2.26694 z m 1.59828,-4.683793 h 0.67682 c 0.79914,0 1.4515,0.68252 1.4515,1.510076 0,0.836085 -0.65236,1.518605 -1.4515,1.518605 h -0.67682 z m 8.37469,-0.05118 h 1.59012 v 4.734981 h 1.60644 v -4.734982 h 1.62275 v -1.672175 h -4.81931 z m 5.92017,4.734981 h 1.60645 v -6.398625 h -1.60645 z m 3.56352,-6.398625 h -0.72573 v 6.398625 h 1.61458 v -3.276097 l 1.60644,1.518608 1.59828,-1.527138 v 3.284627 h 1.6146 v -6.398625 h -0.72575 l -2.48713,2.371758 z m 6.9395,6.398625 h 3.80001 v -1.373571 h -2.19357 v -1.177347 h 1.94078 v -1.416228 h -1.94078 V 63.76202 h 2.19357 v -1.390636 h -3.80001 z"
       id="text1-34"
       style="font-size:8.95859px;font-family:'Big John';-inkscape-font-specification:'Big John, Normal';fill:#ffffff;stroke-width:1.19344;stroke-linecap:round;stroke-linejoin:round"
       aria-label="LIMITED TIME" /><rect
       style="fill:#ef4444;fill-opacity:1;stroke-width:0.0515193;stroke-linecap:round;stroke-linejoin:round"
       id="rect2-9"
       width="79.375"
       height="52.916668"
       x="363.35336"
       y="20.845522" /><path
       d="m 394.5513,31.744922 1.62544,1.083627 c 0.37249,0.25059 0.47409,0.755155 0.22688,1.127652 -0.2472,0.372497 -0.75515,0.474087 -1.12764,0.226884 l -1.62546,-1.083628 c -0.37248,-0.250589 -0.47408,-0.755153 -0.22688,-1.12765 0.24721,-0.372498 0.75516,-0.474088 1.12766,-0.226885 z m 17.87987,1.354535 -1.62544,1.083628 c -0.37251,0.25059 -0.87708,0.148999 -1.12766,-0.226884 -0.2506,-0.375884 -0.149,-0.877062 0.22688,-1.127652 l 1.62544,-1.083627 c 0.3725,-0.250589 0.87706,-0.148999 1.12766,0.226885 0.25058,0.375883 0.14899,0.877061 -0.22688,1.12765 z m -19.41388,3.928151 h 2.16725 c 0.45038,0 0.81272,0.362337 0.81272,0.81272 0,0.450383 -0.36234,0.812721 -0.81272,0.812721 h -2.16725 c -0.45039,0 -0.81272,-0.362338 -0.81272,-0.812721 0,-0.450383 0.36233,-0.81272 0.81272,-0.81272 z m 17.87986,0 h 2.16725 c 0.45039,0 0.81272,0.362337 0.81272,0.81272 0,0.450383 -0.36233,0.812721 -0.81272,0.812721 h -2.16725 c -0.45038,0 -0.81272,-0.362338 -0.81272,-0.812721 0,-0.450383 0.36234,-0.81272 0.81272,-0.81272 z m -13.81625,5.418137 0.84658,-6.769285 c 0.13545,-1.083628 1.05653,-1.899735 2.15032,-1.899735 h 5.92609 c 1.09379,0 2.01487,0.81272 2.15032,1.899735 l 0.84658,6.769285 h -8.86881 l 0.73822,-5.892224 c 0.0373,-0.297998 -0.1727,-0.568905 -0.4707,-0.606155 -0.298,-0.03725 -0.5689,0.172703 -0.60615,0.470701 l -0.75176,6.027678 z m -1.62544,2.167257 c 0,-0.59938 0.48424,-1.083628 1.08362,-1.083628 h 13.00353 c 0.59938,0 1.08363,0.484248 1.08363,1.083628 v 1.083628 c 0,0.599381 -0.48425,1.083627 -1.08363,1.083627 h -13.00353 c -0.59938,0 -1.08362,-0.484246 -1.08362,-1.083627 z"
       id="path1-9"
       style="fill:#ffffff;stroke-width:0.0338633" /><path
       d="m 370.8493,68.73288 h 3.98447 v -1.689349 h -2.30366 v -4.709703 h -1.68081 z m 6.44171,0 0.38394,-0.836142 h 2.61934 l 0.39248,0.836142 h 1.68082 l -3.01182,-6.399052 h -0.75936 l -2.98622,6.399052 z m 1.69788,-3.660258 0.64844,1.407792 h -1.30541 z m 7.85805,-0.776418 c 0,-1.092105 -0.87881,-1.962376 -1.97091,-1.962376 -1.09211,0 -1.96238,0.878803 -1.96238,1.970908 0,1.092105 0.87027,1.962376 1.96238,1.962376 0.26449,0 0.48633,0.221834 0.48633,0.486328 0,0.264494 -0.22184,0.477796 -0.48633,0.477796 -0.2645,0 -0.4778,-0.213302 -0.4778,-0.486328 h -1.49311 c 0,1.126233 0.8788,1.987972 1.97091,1.987972 1.0921,0 1.97091,-0.870271 1.97091,-1.962376 0,-0.469264 -0.15358,-0.895867 -0.42661,-1.23715 -0.35834,-0.460732 -0.92146,-0.759354 -1.5443,-0.759354 -0.2645,0 -0.4778,-0.213302 -0.4778,-0.477796 0,-0.264494 0.2133,-0.486328 0.4778,-0.486328 0.26449,0 0.48633,0.221834 0.48633,0.486328 z m 1.05797,-0.298623 h 1.66376 v 4.735299 h 1.68082 v -4.735299 h 1.69788 v -1.672285 h -5.04246 z m 15.34068,-0.733758 c -0.58019,-0.58018 -1.37367,-0.929995 -2.25247,-0.929995 -1.76614,0 -3.19953,1.433388 -3.19953,3.199526 0,1.766139 1.43339,3.199526 3.19953,3.199526 0.88734,0 1.68935,-0.366879 2.26953,-0.947059 l -1.19449,-1.177426 c -0.26449,0.273026 -0.63991,0.426603 -1.07504,0.426603 -0.87027,0 -1.50164,-0.631373 -1.50164,-1.501644 0,-0.870271 0.63137,-1.501644 1.50164,-1.501644 0.43513,0 0.81055,0.153577 1.07504,0.418071 z m 1.29688,-0.929995 v 6.399052 h 1.68081 v -2.440172 h 2.03064 v 2.440172 h 1.68082 v -6.399052 h -1.68082 v 2.278063 h -2.03064 v -2.278063 z m 7.93483,6.399052 0.38394,-0.836142 h 2.61935 l 0.39247,0.836142 h 1.68082 l -3.01182,-6.399052 h -0.75935 l -2.98623,6.399052 z m 1.69788,-3.660258 0.64844,1.407792 h -1.30541 z m 9.62419,3.660258 v -6.399052 h -1.68082 v 3.020353 l -3.02889,-3.020353 h -0.68256 v 6.399052 h 1.68082 v -3.028885 l 3.02035,3.028885 z m 6.16016,-5.469057 c -0.58018,-0.58018 -1.37366,-0.929995 -2.25246,-0.929995 -1.76614,0 -3.19953,1.433388 -3.19953,3.199526 0,1.766139 1.43339,3.199526 3.19953,3.199526 0.88733,0 1.68935,-0.366879 2.26953,-0.947059 l -1.19449,-1.177426 c -0.2645,0.273026 -0.63991,0.426603 -1.07504,0.426603 -0.87027,0 -1.50165,-0.631373 -1.50165,-1.501644 0,-0.870271 0.63138,-1.501644 1.50165,-1.501644 0.43513,0 0.81054,0.153577 1.07504,0.418071 z m 1.29689,5.469057 h 3.97594 v -1.373663 h -2.29512 v -1.177426 h 2.03063 v -1.416323 h -2.03063 v -1.040913 h 2.29512 v -1.390727 h -3.97594 z"
       id="text1-2"
       style="font-size:8.53207px;font-family:'Big John';-inkscape-font-specification:'Big John, Normal';fill:#ffffff;stroke-width:1.22079;stroke-linecap:round;stroke-linejoin:round"
       aria-label="last chance" /></g></svg>
