<?xml version="1.0" encoding="UTF-8" standalone="no"?>
<!-- Created with Inkscape (http://www.inkscape.org/) -->

<svg
   width="300"
   height="200"
   viewBox="0 0 79.375 52.916666"
   version="1.1"
   id="svg1"
   xml:space="preserve"
   sodipodi:docname="Equal 6_Page 1_categories time.svg"
   inkscape:version="1.3.2 (091e20e, 2023-11-25, custom)"
   xmlns:inkscape="http://www.inkscape.org/namespaces/inkscape"
   xmlns:sodipodi="http://sodipodi.sourceforge.net/DTD/sodipodi-0.dtd"
   xmlns="http://www.w3.org/2000/svg"
   xmlns:svg="http://www.w3.org/2000/svg"><sodipodi:namedview
     id="namedview1"
     pagecolor="#ffffff"
     bordercolor="#000000"
     borderopacity="0.25"
     inkscape:showpageshadow="2"
     inkscape:pageopacity="0.0"
     inkscape:pagecheckerboard="0"
     inkscape:deskcolor="#d1d1d1"
     inkscape:zoom="0.98833333"
     inkscape:cx="149.74705"
     inkscape:cy="99.662732"
     inkscape:window-width="2400"
     inkscape:window-height="1271"
     inkscape:window-x="-9"
     inkscape:window-y="-9"
     inkscape:window-maximized="1"
     inkscape:current-layer="svg1" /><defs
     id="defs1" /><rect
     style="fill:#ef4444;fill-opacity:1;stroke-width:0.0515193;stroke-linecap:round;stroke-linejoin:round"
     id="rect2-2"
     width="79.375"
     height="52.916668"
     x="-3.8610839e-08"
     y="-7.312012e-08"
     inkscape:export-filename="rect2.png"
     inkscape:export-xdpi="28.820946"
     inkscape:export-ydpi="28.820946" /><path
     d="m 46.160773,14.823362 c -0.908405,0 -1.642303,-0.733907 -1.642303,-1.642309 0,-0.908403 0.733898,-1.642308 1.642303,-1.642308 h 8.211542 c 0.908405,0 1.642316,0.733905 1.642316,1.642308 v 8.211544 c 0,0.908401 -0.733911,1.642308 -1.642316,1.642308 -0.908393,0 -1.642303,-0.733907 -1.642303,-1.642308 v -4.244341 l -8.693972,8.688838 c -0.641534,0.641527 -1.683368,0.641527 -2.324889,0 l -5.404222,-5.404221 -7.051668,7.04653 c -0.641522,0.641526 -1.683368,0.641526 -2.32489,0 -0.641534,-0.641527 -0.641534,-1.683367 0,-2.324894 l 8.211542,-8.211542 c 0.641521,-0.641527 1.683368,-0.641527 2.324889,0 l 5.409352,5.409353 7.528968,-7.528958 z"
     id="path1-2"
     style="fill:#ffffff;stroke-width:0.0513221" /><path
     d="m 16.348971,43.162617 h 1.660039 v 4.724741 h 1.677074 V 43.162617 H 21.38018 V 41.49406 h -5.031209 z m 11.824625,4.724741 -1.35358,-2.31555 c 0.459706,-0.425651 0.757666,-1.03859 0.757666,-1.719634 0,-1.293982 -1.055618,-2.3496 -2.3496,-2.3496 h -2.690123 v 6.384784 h 1.677068 v -1.694097 h 1.03859 l 0.987514,1.694097 z m -3.958569,-4.971619 h 1.03859 c 0.510788,0 0.919409,0.408626 0.919409,0.919409 0,0.510783 -0.408621,0.910897 -0.919409,0.910897 h -1.03859 z m 4.784339,4.971619 h 3.967076 v -1.370601 h -2.290009 v -1.1748 h 2.026105 v -1.413166 h -2.026105 v -1.038592 h 2.290009 v -1.387625 h -3.967076 z m 10.547664,0 v -6.384784 h -1.677068 v 3.013618 l -3.022131,-3.013618 h -0.681047 v 6.384784 h 1.677074 v -3.022132 l 3.013619,3.022132 z m 1.285482,0 h 2.36662 c 1.762208,0 3.192398,-1.430192 3.192398,-3.192393 0,-1.7622 -1.43019,-3.192391 -3.192398,-3.192391 h -2.36662 z m 1.668553,-4.673662 h 0.706581 c 0.834285,0 1.515323,0.681044 1.515323,1.506809 0,0.834278 -0.681038,1.515322 -1.515323,1.515322 h -0.706581 z m 5.039723,4.673662 h 1.677067 v -6.384784 h -1.677067 z m 8.342788,0 v -6.384784 h -1.677075 v 3.013618 L 51.184369,41.502574 H 50.50333 v 6.384784 h 1.677067 v -3.022132 l 3.013618,3.022132 z M 59.833638,44.4566 v 1.123722 h 1.234391 c -0.263904,0.383088 -0.732123,0.629965 -1.234391,0.629965 -0.783199,0 -1.506809,-0.638479 -1.506809,-1.515322 0,-0.876844 0.706582,-1.515321 1.506809,-1.515321 0.434163,0 0.791715,0.17026 1.064133,0.425652 l 1.183314,-1.174801 c -0.578886,-0.570374 -1.3706,-0.927921 -2.247447,-0.927921 -1.7622,0 -3.183876,1.430191 -3.183876,3.192391 0,1.762201 1.421676,3.192393 3.183876,3.192393 1.7622,0 3.192391,-1.430192 3.192391,-3.192393 V 44.4566 Z"
     id="text1-8"
     style="font-size:11.6387px;font-family:'Big John';-inkscape-font-specification:'Big John, Normal';fill:#ffffff;stroke-width:1.21808;stroke-linecap:round;stroke-linejoin:round"
     aria-label="TRENDING" /></svg>
