<?xml version="1.0" encoding="UTF-8" standalone="no"?>
<!-- Created with Inkscape (http://www.inkscape.org/) -->

<svg
   width="395"
   height="395"
   viewBox="0 0 104.51042 104.51042"
   version="1.1"
   id="svg1"
   inkscape:version="1.3.2 (091e20e, 2023-11-25, custom)"
   sodipodi:docname="Dealslah poster Ad plain SVG.svg"
   xml:space="preserve"
   xmlns:inkscape="http://www.inkscape.org/namespaces/inkscape"
   xmlns:sodipodi="http://sodipodi.sourceforge.net/DTD/sodipodi-0.dtd"
   xmlns="http://www.w3.org/2000/svg"
   xmlns:svg="http://www.w3.org/2000/svg"><sodipodi:namedview
     id="namedview1"
     pagecolor="#ffffff"
     bordercolor="#000000"
     borderopacity="0.25"
     inkscape:showpageshadow="2"
     inkscape:pageopacity="0.0"
     inkscape:pagecheckerboard="0"
     inkscape:deskcolor="#d1d1d1"
     inkscape:document-units="px"
     inkscape:zoom="1.3316682"
     inkscape:cx="114.14255"
     inkscape:cy="221.15118"
     inkscape:window-width="2400"
     inkscape:window-height="1271"
     inkscape:window-x="-9"
     inkscape:window-y="-9"
     inkscape:window-maximized="1"
     inkscape:current-layer="layer1" /><defs
     id="defs1" /><g
     inkscape:label="Layer 1"
     inkscape:groupmode="layer"
     id="layer1"><rect
       style="opacity:1;fill:#cccccc;stroke:#000000;stroke-width:0.0211667;stroke-linecap:round;stroke-linejoin:round"
       id="rect1"
       width="104.51042"
       height="104.51042"
       x="0"
       y="0" /><path
       d="m 41.339496,35.993594 h -3.358057 l -2.145014,3.6983 -2.13022,-3.6983 h -3.358057 l 4.053337,7.011976 v 4.082923 h 2.884674 V 43.00557 Z m 0.591704,5.562243 c 0,3.062192 2.470465,5.532656 5.532657,5.532656 3.062192,0 5.54745,-2.470464 5.54745,-5.532656 0,-3.062193 -2.485258,-5.562243 -5.54745,-5.562243 -3.062192,0 -5.532657,2.50005 -5.532657,5.562243 z m 8.18064,-0.01479 c 0,1.449733 -1.183456,2.647982 -2.647983,2.647982 -1.449733,0 -2.633189,-1.198249 -2.633189,-2.647982 0,-1.464527 1.183456,-2.647983 2.633189,-2.647983 1.464527,0 2.647983,1.183456 2.647983,2.647983 z m 7.54453,-5.54745 h -2.929054 v 6.716112 c 0,2.440878 1.93791,4.378787 4.378787,4.378787 2.411292,0 4.378788,-1.937909 4.378788,-4.378787 v -6.716112 h -2.929054 v 6.671733 c 0,0.798832 -0.650901,1.449733 -1.449734,1.449733 -0.798832,0 -1.449733,-0.650901 -1.449733,-1.449733 z m 17.840584,11.094899 -2.352119,-4.02375 c 0.798833,-0.73966 1.316595,-1.80477 1.316595,-2.988226 0,-2.248567 -1.834357,-4.082923 -4.082923,-4.082923 h -4.674651 v 11.094899 h 2.91426 v -2.943846 h 1.80477 l 1.716012,2.943846 z m -6.878838,-8.639228 h 1.80477 c 0.887592,0 1.597666,0.710073 1.597666,1.597665 0,0.887592 -0.710074,1.582873 -1.597666,1.582873 h -1.80477 z"
       id="text1"
       style="font-size:14.7932px;font-family:'Big John';-inkscape-font-specification:'Big John, Normal';opacity:1;fill:#ffffff;stroke-width:0.0211667;stroke-linecap:round;stroke-linejoin:round"
       aria-label="Your" /><path
       d="m 20.065184,71.924202 0.665694,-1.449734 h 4.541512 l 0.680487,1.449734 h 2.91426 l -5.221999,-11.0949 h -1.316595 l -5.17762,11.0949 z m 2.943846,-6.346283 1.124284,2.440878 h -2.26336 z m 7.337441,6.346283 h 4.11251 c 3.062192,0 5.547449,-2.485258 5.547449,-5.54745 0,-3.062192 -2.485257,-5.54745 -5.547449,-5.54745 h -4.11251 z m 2.899467,-8.121467 h 1.227836 c 1.449733,0 2.633189,1.183456 2.633189,2.618397 0,1.449733 -1.183456,2.633189 -2.633189,2.633189 h -1.227836 z m 15.429313,-2.973433 v 11.0949 h 2.914261 v -4.230855 h 3.520781 v 4.230855 h 2.91426 v -11.0949 h -2.91426 v 3.949785 h -3.520781 v -3.949785 z m 11.583088,11.0949 H 67.15197 V 69.542497 H 63.1726 v -2.041462 h 3.520781 V 65.045364 H 63.1726 v -1.80477 h 3.97937 v -2.411292 h -6.893631 z m 18.772575,0 -2.352118,-4.02375 c 0.798832,-0.73966 1.316594,-1.804771 1.316594,-2.988227 0,-2.248566 -1.834356,-4.082923 -4.082923,-4.082923 h -4.674651 v 11.0949 h 2.91426 v -2.943847 h 1.804771 l 1.716011,2.943847 z m -6.878838,-8.639229 h 1.804771 c 0.887592,0 1.597665,0.710074 1.597665,1.597666 0,0.887592 -0.710073,1.582872 -1.597665,1.582872 h -1.804771 z m 8.31379,8.639229 h 6.893631 v -2.381705 h -3.97937 v -2.041462 h 3.520781 v -2.455671 h -3.520781 v -1.80477 h 3.97937 v -2.411292 h -6.893631 z"
       id="text2"
       style="font-size:14.7932px;font-family:'Big John';-inkscape-font-specification:'Big John, Normal';opacity:1;fill:#ffffff;stroke-width:0.0211667;stroke-linecap:round;stroke-linejoin:round"
       aria-label="AD HERE" /></g></svg>
