<svg xmlns="http://www.w3.org/2000/svg" xmlns:xlink="http://www.w3.org/1999/xlink" width="400" zoomAndPan="magnify" viewBox="0 0 300 239.999995" height="320" preserveAspectRatio="xMidYMid meet" version="1.0"><defs><filter x="0%" y="0%" width="100%" height="100%" id="4508c10cfc"><feColorMatrix values="0 0 0 0 1 0 0 0 0 1 0 0 0 0 1 0 0 0 1 0" color-interpolation-filters="sRGB"/></filter><clipPath id="fab11299ae"><path d="M 140 213 L 167 213 L 167 239.773438 L 140 239.773438 Z M 140 213 " clip-rule="nonzero"/></clipPath><mask id="44e0fade71"><g filter="url(#4508c10cfc)"><rect x="-30" width="360" fill="#000000" y="-23.999999" height="287.999994" fill-opacity="0.03"/></g></mask><clipPath id="c70f4fe21d"><path d="M 0.480469 1 L 50 1 L 50 129.519531 L 0.480469 129.519531 Z M 0.480469 1 " clip-rule="nonzero"/></clipPath><clipPath id="3a7a6a351e"><path d="M 28 1 L 59.761719 1 L 59.761719 129.519531 L 28 129.519531 Z M 28 1 " clip-rule="nonzero"/></clipPath><clipPath id="6c311ae9fc"><rect x="0" width="60" y="0" height="130"/></clipPath><mask id="357057c85d"><g filter="url(#4508c10cfc)"><rect x="-30" width="360" fill="#000000" y="-23.999999" height="287.999994" fill-opacity="0.5"/></g></mask><clipPath id="20aa487a10"><path d="M 0.0390625 0.839844 L 12.28125 0.839844 L 12.28125 9 L 0.0390625 9 Z M 0.0390625 0.839844 " clip-rule="nonzero"/></clipPath><clipPath id="215848969f"><path d="M 7 9 L 9 9 L 9 11.398438 L 7 11.398438 Z M 7 9 " clip-rule="nonzero"/></clipPath><clipPath id="2ae6cd3319"><path d="M 1 9 L 4 9 L 4 11.398438 L 1 11.398438 Z M 1 9 " clip-rule="nonzero"/></clipPath><clipPath id="af5e584079"><rect x="0" width="13" y="0" height="12"/></clipPath><mask id="a9f42fa7aa"><g filter="url(#4508c10cfc)"><rect x="-30" width="360" fill="#000000" y="-23.999999" height="287.999994" fill-opacity="0.2"/></g></mask><clipPath id="34593d78cf"><path d="M 0.320312 10 L 5 10 L 5 16 L 0.320312 16 Z M 0.320312 10 " clip-rule="nonzero"/></clipPath><clipPath id="2f311fbb6e"><path d="M 26 0.160156 L 32.71875 0.160156 L 32.71875 6 L 26 6 Z M 26 0.160156 " clip-rule="nonzero"/></clipPath><clipPath id="09cdfd9c34"><rect x="0" width="33" y="0" height="16"/></clipPath></defs><path fill="#ffb6b6" d="M 248.878906 179.636719 L 233.089844 179.636719 L 233.089844 179.753906 L 248.878906 179.753906 Z M 248.878906 179.636719 " fill-opacity="1" fill-rule="nonzero"/><path fill="#ffb6b6" d="M 192.296875 180.929688 L 188.152344 180.929688 L 188.152344 181.050781 L 192.296875 181.050781 Z M 192.296875 180.929688 " fill-opacity="1" fill-rule="nonzero"/><path fill="#ffb6b6" d="M 232.613281 175.210938 L 223.460938 175.210938 L 223.460938 175.332031 L 232.613281 175.332031 Z M 232.613281 175.210938 " fill-opacity="1" fill-rule="nonzero"/><path fill="#ffb6b6" d="M 79.980469 176.011719 L 59.386719 176.011719 L 59.386719 176.132812 L 79.980469 176.132812 Z M 79.980469 176.011719 " fill-opacity="1" fill-rule="nonzero"/><path fill="#ffb6b6" d="M 87.246094 176.011719 L 84.226562 176.011719 L 84.226562 176.132812 L 87.246094 176.132812 Z M 87.246094 176.011719 " fill-opacity="1" fill-rule="nonzero"/><path fill="#ffb6b6" d="M 141.722656 178.023438 L 97.058594 178.023438 L 97.058594 178.144531 L 141.722656 178.144531 Z M 141.722656 178.023438 " fill-opacity="1" fill-rule="nonzero"/><path fill="#ffb6b6" d="M 272.765625 171.96875 L 34.375 171.96875 L 34.375 172.085938 L 272.765625 172.085938 Z M 272.765625 171.96875 " fill-opacity="1" fill-rule="nonzero"/><path fill="#ff0060" d="M 212.742188 34.714844 C 211.332031 32.699219 208.546875 32.210938 206.53125 33.621094 L 204.640625 34.945312 L 203.316406 33.058594 C 201.90625 31.042969 199.121094 30.550781 197.105469 31.960938 C 195.089844 33.371094 194.597656 36.15625 196.007812 38.171875 L 202.449219 47.367188 L 211.652344 40.929688 C 213.667969 39.519531 214.160156 36.734375 212.746094 34.71875 Z M 212.742188 34.714844 " fill-opacity="1" fill-rule="nonzero"/><path fill="#ffffff" d="M 212.742188 34.714844 C 211.332031 32.699219 208.546875 32.210938 206.53125 33.621094 L 204.640625 34.945312 L 203.316406 33.058594 C 201.90625 31.042969 199.121094 30.550781 197.105469 31.960938 C 195.089844 33.371094 194.597656 36.15625 196.007812 38.171875 L 202.449219 47.367188 L 211.652344 40.929688 C 213.667969 39.519531 214.160156 36.734375 212.746094 34.71875 Z M 212.742188 34.714844 " fill-opacity="0.6" fill-rule="nonzero"/><path fill="#ff0060" d="M 225.96875 35.574219 C 225.277344 34.585938 223.914062 34.34375 222.925781 35.035156 L 222.003906 35.683594 L 221.355469 34.757812 C 220.664062 33.773438 219.300781 33.527344 218.3125 34.21875 C 217.324219 34.910156 217.082031 36.273438 217.773438 37.261719 L 220.925781 41.765625 L 225.429688 38.613281 C 226.417969 37.921875 226.660156 36.558594 225.96875 35.574219 Z M 225.96875 35.574219 " fill-opacity="1" fill-rule="nonzero"/><path fill="#ffffff" d="M 225.96875 35.574219 C 225.277344 34.585938 223.914062 34.34375 222.925781 35.035156 L 222.003906 35.683594 L 221.355469 34.757812 C 220.664062 33.773438 219.300781 33.527344 218.3125 34.21875 C 217.324219 34.910156 217.082031 36.273438 217.773438 37.261719 L 220.925781 41.765625 L 225.429688 38.613281 C 226.417969 37.921875 226.660156 36.558594 225.96875 35.574219 Z M 225.96875 35.574219 " fill-opacity="0.6" fill-rule="nonzero"/><g clip-path="url(#fab11299ae)"><path fill="#ffffff" d="M 153.613281 215.730469 L 157.089844 213.503906 L 158.984375 217.175781 L 163.113281 216.976562 L 162.925781 221.105469 L 166.59375 223.003906 L 164.363281 226.480469 L 166.59375 229.960938 L 162.925781 231.855469 L 163.113281 235.984375 L 158.984375 235.792969 L 157.089844 239.460938 L 153.613281 237.230469 L 150.132812 239.460938 L 148.234375 235.792969 L 144.105469 235.984375 L 144.296875 231.855469 L 140.625 229.960938 L 142.855469 226.480469 L 140.625 223.003906 L 144.296875 221.105469 L 144.105469 216.976562 L 148.234375 217.175781 L 150.132812 213.503906 Z M 153.613281 215.730469 " fill-opacity="1" fill-rule="nonzero"/></g><path fill="#cc004d" d="M 152.292969 231.789062 L 148.160156 227.65625 C 147.6875 227.183594 147.6875 226.417969 148.160156 225.945312 C 148.628906 225.476562 149.398438 225.476562 149.871094 225.945312 L 152.292969 228.367188 L 157.351562 223.3125 C 157.824219 222.839844 158.589844 222.839844 159.0625 223.3125 C 159.535156 223.785156 159.535156 224.550781 159.0625 225.023438 Z M 152.292969 231.789062 " fill-opacity="1" fill-rule="nonzero"/><path fill="#ffffff" d="M 284.527344 177.484375 L 289.84375 180.195312 C 290.742188 180.652344 291.832031 180.460938 292.523438 179.722656 L 296.589844 175.359375 C 297.074219 174.839844 297.289062 174.125 297.164062 173.429688 L 295.046875 161.445312 C 294.699219 159.484375 292.828125 158.175781 290.871094 158.523438 L 284.136719 159.710938 C 282.179688 160.058594 280.867188 161.925781 281.214844 163.882812 L 283.332031 175.867188 C 283.457031 176.5625 283.898438 177.164062 284.527344 177.488281 Z M 290.582031 176.554688 C 291.199219 176.445312 291.785156 176.855469 291.894531 177.476562 C 292.003906 178.089844 291.59375 178.675781 290.972656 178.785156 C 290.359375 178.894531 289.773438 178.484375 289.664062 177.863281 C 289.554688 177.25 289.964844 176.664062 290.582031 176.554688 Z M 290.582031 176.554688 " fill-opacity="1" fill-rule="nonzero"/><path fill="#fafafa" d="M 284.789062 173.777344 L 295.078125 171.960938 L 294.878906 170.851562 L 284.59375 172.664062 Z M 284.789062 173.777344 " fill-opacity="1" fill-rule="nonzero"/><path fill="#fafafa" d="M 283.046875 163.890625 L 293.335938 162.078125 L 293.136719 160.96875 L 282.851562 162.78125 Z M 283.046875 163.890625 " fill-opacity="1" fill-rule="nonzero"/><path fill="#ffd0d0" d="M 9.0625 115.023438 C 2.65625 116.859375 -1.046875 123.542969 0.785156 129.949219 C 1.980469 134.109375 9.277344 141.085938 14.25 145.460938 C 16.46875 147.410156 19.964844 146.40625 20.808594 143.582031 C 22.699219 137.238281 25.191406 127.457031 23.996094 123.296875 C 22.160156 116.890625 15.472656 113.1875 9.0625 115.023438 Z M 13.925781 131.972656 C 10.972656 132.820312 7.882812 131.113281 7.039062 128.15625 C 6.1875 125.203125 7.902344 122.113281 10.855469 121.269531 C 13.8125 120.421875 16.902344 122.132812 17.746094 125.089844 C 18.59375 128.042969 16.882812 131.128906 13.925781 131.972656 Z M 13.925781 131.972656 " fill-opacity="1" fill-rule="nonzero"/><path fill="#ffffff" d="M 10.953125 114.480469 C 4.542969 116.316406 0.839844 123 2.675781 129.40625 C 3.867188 133.566406 11.167969 140.542969 16.140625 144.917969 C 18.355469 146.867188 21.851562 145.863281 22.695312 143.039062 C 24.585938 136.695312 27.082031 126.914062 25.882812 122.753906 C 24.050781 116.347656 17.359375 112.644531 10.953125 114.480469 Z M 15.816406 131.429688 C 12.859375 132.277344 9.769531 130.566406 8.925781 127.613281 C 8.078125 124.660156 9.789062 121.570312 12.746094 120.726562 C 15.699219 119.878906 18.789062 121.589844 19.632812 124.542969 C 20.476562 127.5 18.769531 130.585938 15.816406 131.429688 Z M 15.816406 131.429688 " fill-opacity="1" fill-rule="nonzero"/><path fill="#ffffff" d="M 153.570312 193.226562 C 204.625 193.226562 246.015625 190.808594 246.015625 187.832031 C 246.015625 184.851562 204.625 182.4375 153.570312 182.4375 C 102.515625 182.4375 61.128906 184.851562 61.128906 187.832031 C 61.128906 190.808594 102.515625 193.226562 153.570312 193.226562 Z M 153.570312 193.226562 " fill-opacity="1" fill-rule="nonzero"/><path fill="#cc004d" d="M 124.25 79.269531 L 129.351562 79.269531 C 130.441406 79.269531 131.253906 80.15625 131.152344 81.246094 L 130.214844 92 C 130.117188 93.09375 129.15625 93.980469 128.0625 93.980469 L 122.960938 93.980469 C 121.871094 93.980469 121.058594 93.09375 121.160156 92 L 122.097656 81.246094 C 122.195312 80.15625 123.15625 79.269531 124.25 79.269531 Z M 124.25 79.269531 " fill-opacity="1" fill-rule="nonzero"/><path fill="#000000" d="M 181.320312 76.972656 L 189.292969 76.972656 C 191 76.972656 192.261719 78.351562 192.109375 80.058594 L 191.128906 91.289062 C 190.980469 92.996094 189.472656 94.378906 187.765625 94.378906 L 179.792969 94.378906 C 178.085938 94.378906 176.824219 92.996094 176.976562 91.289062 L 177.957031 80.058594 C 178.105469 78.351562 179.613281 76.972656 181.320312 76.972656 Z M 181.320312 76.972656 " fill-opacity="0.2" fill-rule="nonzero"/><path fill="#000000" d="M 179.683594 95.632812 L 187.65625 95.632812 C 189.363281 95.632812 190.625 97.015625 190.472656 98.71875 L 189.492188 109.953125 C 189.34375 111.65625 187.835938 113.039062 186.132812 113.039062 L 178.160156 113.039062 C 176.453125 113.039062 175.1875 111.65625 175.339844 109.953125 L 176.324219 98.71875 C 176.472656 97.015625 177.976562 95.632812 179.683594 95.632812 Z M 179.683594 95.632812 " fill-opacity="0.2" fill-rule="nonzero"/><path fill="#cc004d" d="M 138.558594 55.914062 L 182.972656 55.914062 C 189.148438 55.914062 193.710938 60.910156 193.171875 67.082031 L 183.695312 175.335938 C 183.15625 181.507812 177.710938 186.507812 171.542969 186.507812 L 127.125 186.507812 C 120.949219 186.507812 116.386719 181.507812 116.925781 175.335938 L 126.398438 67.082031 C 126.9375 60.910156 132.382812 55.914062 138.554688 55.914062 Z M 138.558594 55.914062 " fill-opacity="1" fill-rule="nonzero"/><path fill="#000000" d="M 138.558594 55.914062 L 182.972656 55.914062 C 189.148438 55.914062 193.710938 60.910156 193.171875 67.082031 L 183.695312 175.335938 C 183.15625 181.507812 177.710938 186.507812 171.542969 186.507812 L 127.125 186.507812 C 120.949219 186.507812 116.386719 181.507812 116.925781 175.335938 L 126.398438 67.082031 C 126.9375 60.910156 132.382812 55.914062 138.554688 55.914062 Z M 138.558594 55.914062 " fill-opacity="0.2" fill-rule="nonzero"/><path fill="#cc004d" d="M 137.121094 55.914062 L 181.539062 55.914062 C 187.714844 55.914062 192.277344 60.910156 191.738281 67.082031 L 182.265625 175.335938 C 181.726562 181.507812 176.28125 186.507812 170.109375 186.507812 L 125.695312 186.507812 C 119.519531 186.507812 114.957031 181.507812 115.496094 175.335938 L 124.972656 67.082031 C 125.511719 60.910156 130.957031 55.914062 137.128906 55.914062 Z M 137.121094 55.914062 " fill-opacity="1" fill-rule="nonzero"/><path fill="#ffffff" d="M 190.40625 67.082031 L 180.933594 175.332031 C 180.457031 180.765625 175.664062 185.171875 170.230469 185.171875 L 125.8125 185.171875 C 120.378906 185.171875 116.355469 180.769531 116.832031 175.332031 L 126.304688 67.082031 C 126.78125 61.652344 131.574219 57.242188 137.007812 57.242188 L 181.425781 57.242188 C 186.859375 57.242188 190.882812 61.644531 190.40625 67.082031 Z M 190.40625 67.082031 " fill-opacity="1" fill-rule="nonzero"/><g mask="url(#44e0fade71)"><g transform="matrix(1, 0, 0, 1, 102, 56)"><g clip-path="url(#6c311ae9fc)"><g clip-path="url(#c70f4fe21d)"><path fill="#cc004d" d="M 5.066406 129.171875 L 21.90625 129.171875 L 49.109375 1.246094 L 27.65625 1.246094 L 0.679688 128.089844 C 1.960938 128.78125 3.449219 129.175781 5.066406 129.175781 Z M 5.066406 129.171875 " fill-opacity="1" fill-rule="nonzero"/></g><g clip-path="url(#3a7a6a351e)"><path fill="#cc004d" d="M 59.410156 1.246094 L 55.328125 1.246094 L 28.117188 129.171875 L 32.203125 129.171875 Z M 59.410156 1.246094 " fill-opacity="1" fill-rule="nonzero"/></g></g></g></g><path fill="#cc004d" d="M 146.195312 56.929688 C 146.046875 58.667969 147.335938 60.074219 149.074219 60.082031 L 168.863281 60.082031 C 170.601562 60.078125 172.132812 58.667969 172.289062 56.929688 Z M 146.195312 56.929688 " fill-opacity="1" fill-rule="nonzero"/><path fill="#cc004d" d="M 180.617188 60.730469 L 185.109375 60.730469 C 185.488281 60.730469 185.761719 61.035156 185.730469 61.40625 L 185.558594 63.367188 C 185.523438 63.742188 185.195312 64.042969 184.820312 64.042969 L 180.328125 64.042969 C 179.953125 64.042969 179.675781 63.738281 179.707031 63.367188 L 179.878906 61.40625 C 179.914062 61.03125 180.242188 60.730469 180.617188 60.730469 Z M 180.617188 60.730469 " fill-opacity="1" fill-rule="nonzero"/><path fill="#cc004d" d="M 132.664062 60.730469 L 138.675781 60.730469 C 139.101562 60.730469 139.410156 61.074219 139.378906 61.5 L 139.21875 63.28125 C 139.183594 63.703125 138.808594 64.046875 138.386719 64.046875 L 132.375 64.046875 C 131.949219 64.046875 131.640625 63.703125 131.671875 63.28125 L 131.828125 61.5 C 131.867188 61.074219 132.242188 60.730469 132.664062 60.730469 Z M 132.664062 60.730469 " fill-opacity="1" fill-rule="nonzero"/><path fill="#ffffff" d="M 132.664062 60.730469 L 138.675781 60.730469 C 139.101562 60.730469 139.410156 61.074219 139.378906 61.5 L 139.21875 63.28125 C 139.183594 63.703125 138.808594 64.046875 138.386719 64.046875 L 132.375 64.046875 C 131.949219 64.046875 131.640625 63.703125 131.671875 63.28125 L 131.828125 61.5 C 131.867188 61.074219 132.242188 60.730469 132.664062 60.730469 Z M 132.664062 60.730469 " fill-opacity="0.4" fill-rule="nonzero"/><path fill="#cc004d" d="M 179.421875 61.296875 L 180.128906 61.296875 C 180.265625 61.296875 180.367188 61.40625 180.355469 61.546875 L 180.210938 63.226562 C 180.195312 63.367188 180.074219 63.476562 179.9375 63.476562 L 179.230469 63.476562 C 179.09375 63.476562 178.992188 63.367188 179.003906 63.226562 L 179.152344 61.546875 C 179.164062 61.40625 179.285156 61.296875 179.421875 61.296875 Z M 179.421875 61.296875 " fill-opacity="1" fill-rule="nonzero"/><path fill="#ffffff" d="M 184.21875 61.296875 L 184.925781 61.296875 C 185.0625 61.296875 185.164062 61.40625 185.152344 61.546875 L 185.003906 63.226562 C 184.992188 63.367188 184.871094 63.476562 184.734375 63.476562 L 184.027344 63.476562 C 183.890625 63.476562 183.789062 63.367188 183.800781 63.226562 L 183.945312 61.546875 C 183.960938 61.40625 184.082031 61.296875 184.21875 61.296875 Z M 184.21875 61.296875 " fill-opacity="1" fill-rule="nonzero"/><path fill="#ffffff" d="M 182.699219 61.296875 L 183.402344 61.296875 C 183.542969 61.296875 183.640625 61.40625 183.632812 61.546875 L 183.484375 63.226562 C 183.46875 63.367188 183.351562 63.476562 183.210938 63.476562 L 182.507812 63.476562 C 182.367188 63.476562 182.269531 63.367188 182.277344 63.226562 L 182.425781 61.546875 C 182.441406 61.40625 182.558594 61.296875 182.699219 61.296875 Z M 182.699219 61.296875 " fill-opacity="1" fill-rule="nonzero"/><path fill="#cc004d" d="M 190.679688 91.214844 L 189.710938 102.285156 C 190.640625 102.113281 191.410156 101.308594 191.496094 100.34375 L 192.125 93.160156 C 192.210938 92.191406 191.585938 91.390625 190.683594 91.21875 Z M 190.679688 91.214844 " fill-opacity="1" fill-rule="nonzero"/><path fill="#000000" d="M 190.679688 91.214844 L 189.710938 102.285156 C 190.640625 102.113281 191.410156 101.308594 191.496094 100.34375 L 192.125 93.160156 C 192.210938 92.191406 191.585938 91.390625 190.683594 91.21875 Z M 190.679688 91.214844 " fill-opacity="0.2" fill-rule="nonzero"/><path fill="#cc004d" d="M 191.722656 79.269531 L 190.753906 90.335938 C 191.683594 90.167969 192.453125 89.359375 192.539062 88.398438 L 193.167969 81.210938 C 193.253906 80.246094 192.628906 79.445312 191.726562 79.273438 Z M 191.722656 79.269531 " fill-opacity="1" fill-rule="nonzero"/><path fill="#000000" d="M 191.722656 79.269531 L 190.753906 90.335938 C 191.683594 90.167969 192.453125 89.359375 192.539062 88.398438 L 193.167969 81.210938 C 193.253906 80.246094 192.628906 79.445312 191.726562 79.273438 Z M 191.722656 79.269531 " fill-opacity="0.2" fill-rule="nonzero"/><path fill="#cc004d" d="M 164.78125 64.851562 L 149.925781 64.851562 C 147.441406 64.851562 145.246094 66.867188 145.027344 69.351562 L 144.261719 78.144531 C 144.039062 80.625 145.878906 82.640625 148.363281 82.640625 L 152.613281 82.640625 L 152.3125 86.0625 C 152.234375 86.910156 153.226562 87.335938 153.882812 86.734375 L 158.335938 82.640625 L 163.214844 82.640625 C 165.699219 82.640625 167.894531 80.625 168.113281 78.144531 L 168.878906 69.351562 C 169.101562 66.867188 167.257812 64.851562 164.777344 64.851562 Z M 164.78125 64.851562 " fill-opacity="1" fill-rule="nonzero"/><path fill="#ffffff" d="M 160.335938 69.050781 L 153.203125 69.050781 C 153.183594 68.460938 153.175781 68.164062 153.15625 67.574219 L 149.234375 67.574219 C 149.285156 67.914062 149.3125 68.078125 149.367188 68.417969 L 152.199219 68.417969 C 152.210938 68.667969 152.222656 68.796875 152.242188 69.050781 C 152.324219 70.300781 152.359375 70.925781 152.441406 72.171875 C 152.464844 72.511719 152.472656 72.675781 152.492188 73.015625 C 152.574219 74.265625 152.613281 74.886719 152.695312 76.136719 C 152.738281 76.804688 152.761719 77.136719 152.804688 77.804688 L 160.632812 77.804688 C 160.742188 77.464844 160.792969 77.300781 160.898438 76.960938 L 153.449219 76.960938 C 153.4375 76.632812 153.433594 76.464844 153.421875 76.136719 L 161.527344 76.136719 C 161.949219 74.886719 162.152344 74.265625 162.574219 73.015625 C 162.6875 72.675781 162.738281 72.511719 162.855469 72.171875 C 163.273438 70.925781 163.480469 70.300781 163.898438 69.050781 L 160.332031 69.050781 Z M 153.234375 69.894531 L 155.761719 69.894531 C 155.707031 70.804688 155.683594 71.261719 155.632812 72.171875 L 153.308594 72.171875 C 153.28125 71.261719 153.265625 70.804688 153.238281 69.894531 Z M 153.40625 75.292969 C 153.375 74.382812 153.363281 73.925781 153.332031 73.015625 L 155.582031 73.015625 C 155.53125 73.925781 155.507812 74.382812 155.453125 75.292969 Z M 158.253906 75.292969 L 156.207031 75.292969 C 156.289062 74.382812 156.332031 73.925781 156.414062 73.015625 L 158.664062 73.015625 C 158.5 73.925781 158.421875 74.382812 158.253906 75.292969 Z M 158.816406 72.171875 L 156.488281 72.171875 C 156.570312 71.261719 156.613281 70.804688 156.695312 69.894531 L 159.222656 69.894531 C 159.058594 70.804688 158.976562 71.261719 158.8125 72.171875 Z M 161.054688 75.292969 L 159.011719 75.292969 C 159.207031 74.382812 159.300781 73.925781 159.492188 73.015625 L 161.742188 73.015625 C 161.46875 73.925781 161.332031 74.382812 161.054688 75.292969 Z M 162 72.171875 L 159.679688 72.171875 C 159.875 71.261719 159.96875 70.804688 160.160156 69.894531 L 162.6875 69.894531 C 162.410156 70.804688 162.277344 71.261719 162 72.171875 Z M 162 72.171875 " fill-opacity="1" fill-rule="nonzero"/><path fill="#ffffff" d="M 153.226562 78.597656 C 152.675781 78.597656 152.1875 79.042969 152.136719 79.597656 C 152.089844 80.148438 152.5 80.597656 153.050781 80.597656 C 153.605469 80.597656 154.089844 80.148438 154.144531 79.597656 C 154.191406 79.042969 153.78125 78.597656 153.226562 78.597656 Z M 153.226562 78.597656 " fill-opacity="1" fill-rule="nonzero"/><path fill="#ffffff" d="M 160.347656 78.597656 C 159.792969 78.597656 159.308594 79.042969 159.253906 79.597656 C 159.207031 80.148438 159.617188 80.597656 160.171875 80.597656 C 160.722656 80.597656 161.210938 80.148438 161.261719 79.597656 C 161.308594 79.042969 160.898438 78.597656 160.347656 78.597656 Z M 160.347656 78.597656 " fill-opacity="1" fill-rule="nonzero"/><path fill="#cc004d" d="M 175.457031 127.070312 L 158.46875 127.070312 L 158.46875 144.046875 L 175.457031 144.046875 Z M 175.457031 127.070312 " fill-opacity="1" fill-rule="nonzero"/><path fill="#cc004d" d="M 185.882812 127.070312 L 175.449219 127.070312 L 175.449219 144.046875 L 185.882812 144.046875 Z M 185.882812 127.070312 " fill-opacity="1" fill-rule="nonzero"/><path fill="#cc004d" d="M 172.207031 122.808594 L 155.222656 122.808594 L 158.46875 127.070312 L 175.449219 127.070312 Z M 172.207031 122.808594 " fill-opacity="1" fill-rule="nonzero"/><path fill="#ffffff" d="M 185.882812 127.070312 L 175.449219 127.070312 L 175.449219 144.046875 L 185.882812 144.046875 Z M 185.882812 127.070312 " fill-opacity="0.3" fill-rule="nonzero"/><path fill="#ffffff" d="M 172.207031 122.808594 L 155.222656 122.808594 L 158.46875 127.070312 L 175.449219 127.070312 Z M 172.207031 122.808594 " fill-opacity="0.4" fill-rule="nonzero"/><path fill="#cc004d" d="M 178.527344 122.808594 L 188.957031 122.808594 L 185.886719 127.070312 L 175.449219 127.070312 Z M 178.527344 122.808594 " fill-opacity="1" fill-rule="nonzero"/><path fill="#ffffff" d="M 175.457031 127.070312 L 158.46875 127.070312 L 158.46875 144.046875 L 175.457031 144.046875 Z M 175.457031 127.070312 " fill-opacity="0.6" fill-rule="nonzero"/><path fill="#ffffff" d="M 178.527344 122.808594 L 188.957031 122.808594 L 185.886719 127.070312 L 175.449219 127.070312 Z M 178.527344 122.808594 " fill-opacity="0.2" fill-rule="nonzero"/><path fill="#cc004d" d="M 223.253906 143.625 L 180.4375 143.625 L 180.4375 186.414062 L 223.253906 186.414062 Z M 223.253906 143.625 " fill-opacity="1" fill-rule="nonzero"/><path fill="#ffffff" d="M 223.253906 143.625 L 180.4375 143.625 L 180.4375 186.414062 L 223.253906 186.414062 Z M 223.253906 143.625 " fill-opacity="0.4" fill-rule="nonzero"/><path fill="#cc004d" d="M 180.429688 143.625 L 154.128906 143.625 L 154.128906 186.414062 L 180.429688 186.414062 Z M 180.429688 143.625 " fill-opacity="1" fill-rule="nonzero"/><path fill="#ffffff" d="M 180.429688 143.625 L 154.128906 143.625 L 154.128906 186.414062 L 180.429688 186.414062 Z M 180.429688 143.625 " fill-opacity="0.6" fill-rule="nonzero"/><path fill="#ffffff" d="M 162.253906 143.625 L 162.253906 155.117188 L 163.296875 155.671875 L 164.199219 154.917969 L 165.625 155.671875 L 166.976562 154.917969 L 168.027344 155.671875 L 169.230469 154.917969 L 169.910156 155.53125 L 169.910156 143.625 Z M 162.253906 143.625 " fill-opacity="0.5" fill-rule="nonzero"/><path fill="#ffffff" d="M 169.910156 186.414062 L 169.910156 174.921875 L 168.867188 174.375 L 167.964844 175.121094 L 166.539062 174.375 L 165.1875 175.121094 L 164.136719 174.375 L 162.9375 175.121094 L 162.253906 174.507812 L 162.253906 186.414062 Z M 169.910156 186.414062 " fill-opacity="0.5" fill-rule="nonzero"/><path fill="#ffffff" d="M 197.902344 161.074219 C 198.144531 162.050781 198.265625 162.542969 198.507812 163.519531 C 198.574219 163.785156 198.609375 163.914062 198.671875 164.179688 C 198.914062 165.15625 199.03125 165.648438 199.277344 166.625 L 205.625 166.625 C 205.597656 166.882812 205.578125 167.011719 205.550781 167.269531 L 199.710938 167.269531 C 199.769531 167.53125 199.800781 167.664062 199.863281 167.929688 L 206 167.929688 C 206.078125 167.40625 206.117188 167.144531 206.199219 166.625 C 206.347656 165.648438 206.421875 165.15625 206.570312 164.179688 C 206.609375 163.917969 206.632812 163.785156 206.671875 163.519531 C 206.816406 162.542969 206.894531 162.050781 207.042969 161.074219 C 207.070312 160.875 207.085938 160.777344 207.117188 160.578125 L 209.335938 160.578125 C 209.402344 160.316406 209.4375 160.183594 209.496094 159.917969 L 206.421875 159.917969 C 206.363281 160.378906 206.339844 160.613281 206.285156 161.074219 L 197.898438 161.074219 Z M 206 163.523438 L 204.175781 163.523438 C 204.199219 162.808594 204.210938 162.449219 204.230469 161.742188 L 206.207031 161.742188 C 206.121094 162.457031 206.078125 162.8125 205.992188 163.523438 Z M 204.101562 165.96875 C 204.125 165.253906 204.132812 164.894531 204.152344 164.179688 L 205.917969 164.179688 C 205.832031 164.894531 205.789062 165.253906 205.703125 165.96875 Z M 201.742188 164.179688 L 203.503906 164.179688 C 203.503906 164.894531 203.503906 165.253906 203.507812 165.96875 L 201.90625 165.96875 C 201.839844 165.253906 201.808594 164.894531 201.746094 164.179688 Z M 201.515625 161.734375 L 203.5 161.734375 C 203.5 162.449219 203.5 162.808594 203.503906 163.519531 L 201.683594 163.519531 C 201.617188 162.804688 201.582031 162.445312 201.519531 161.734375 Z M 199.324219 164.179688 L 201.085938 164.179688 C 201.179688 164.894531 201.222656 165.253906 201.3125 165.96875 L 199.710938 165.96875 C 199.558594 165.253906 199.480469 164.894531 199.328125 164.179688 Z M 198.796875 161.734375 L 200.777344 161.734375 C 200.867188 162.449219 200.910156 162.808594 201 163.519531 L 199.179688 163.519531 C 199.027344 162.804688 198.953125 162.445312 198.796875 161.734375 Z M 198.796875 161.734375 " fill-opacity="1" fill-rule="nonzero"/><path fill="#ffffff" d="M 205.617188 170.128906 C 206.050781 170.128906 206.402344 169.777344 206.402344 169.34375 C 206.402344 168.90625 206.050781 168.554688 205.617188 168.554688 C 205.183594 168.554688 204.832031 168.90625 204.832031 169.34375 C 204.832031 169.777344 205.183594 170.128906 205.617188 170.128906 Z M 205.617188 170.128906 " fill-opacity="1" fill-rule="nonzero"/><path fill="#ffffff" d="M 200.035156 170.128906 C 200.46875 170.128906 200.820312 169.777344 200.820312 169.34375 C 200.820312 168.90625 200.46875 168.554688 200.035156 168.554688 C 199.597656 168.554688 199.246094 168.90625 199.246094 169.34375 C 199.246094 169.777344 199.597656 170.128906 200.035156 170.128906 Z M 200.035156 170.128906 " fill-opacity="1" fill-rule="nonzero"/><g mask="url(#357057c85d)"><g transform="matrix(1, 0, 0, 1, 161, 159)"><g clip-path="url(#af5e584079)"><g clip-path="url(#20aa487a10)"><path fill="#ffffff" d="M 0.480469 2.074219 C 0.722656 3.050781 0.84375 3.542969 1.085938 4.519531 C 1.152344 4.785156 1.1875 4.914062 1.25 5.179688 C 1.492188 6.15625 1.609375 6.648438 1.855469 7.625 L 8.207031 7.625 C 8.175781 7.882812 8.15625 8.011719 8.128906 8.269531 L 2.289062 8.269531 C 2.351562 8.53125 2.378906 8.664062 2.441406 8.929688 L 8.578125 8.929688 C 8.65625 8.40625 8.695312 8.144531 8.777344 7.625 C 8.925781 6.648438 9 6.15625 9.148438 5.179688 C 9.1875 4.917969 9.210938 4.785156 9.25 4.519531 C 9.398438 3.542969 9.472656 3.050781 9.621094 2.074219 C 9.648438 1.875 9.664062 1.777344 9.699219 1.578125 L 11.914062 1.578125 C 11.980469 1.316406 12.015625 1.183594 12.078125 0.917969 L 9 0.917969 C 8.945312 1.378906 8.921875 1.613281 8.863281 2.074219 L 0.476562 2.074219 Z M 8.578125 4.523438 L 6.753906 4.523438 L 6.808594 2.742188 L 8.785156 2.742188 C 8.703125 3.457031 8.65625 3.8125 8.570312 4.523438 Z M 6.679688 6.96875 C 6.703125 6.253906 6.710938 5.894531 6.730469 5.179688 L 8.496094 5.179688 C 8.410156 5.894531 8.367188 6.253906 8.28125 6.96875 Z M 4.320312 5.179688 L 6.082031 5.179688 C 6.082031 5.894531 6.082031 6.253906 6.089844 6.96875 L 4.484375 6.96875 C 4.417969 6.253906 4.386719 5.894531 4.324219 5.179688 Z M 4.089844 2.734375 L 6.074219 2.734375 C 6.074219 3.449219 6.074219 3.808594 6.078125 4.519531 L 4.257812 4.519531 C 4.191406 3.804688 4.15625 3.445312 4.09375 2.734375 Z M 1.902344 5.179688 L 3.664062 5.179688 C 3.757812 5.894531 3.800781 6.253906 3.890625 6.96875 L 2.289062 6.96875 C 2.136719 6.253906 2.058594 5.894531 1.90625 5.179688 Z M 1.378906 2.734375 L 3.355469 2.734375 C 3.445312 3.449219 3.488281 3.808594 3.582031 4.519531 L 1.757812 4.519531 C 1.605469 3.804688 1.53125 3.445312 1.378906 2.734375 Z M 1.378906 2.734375 " fill-opacity="1" fill-rule="nonzero"/></g><g clip-path="url(#215848969f)"><path fill="#ffffff" d="M 8.195312 11.128906 C 8.628906 11.128906 8.984375 10.777344 8.984375 10.34375 C 8.984375 9.90625 8.628906 9.554688 8.195312 9.554688 C 7.761719 9.554688 7.410156 9.90625 7.410156 10.34375 C 7.410156 10.777344 7.761719 11.128906 8.195312 11.128906 Z M 8.195312 11.128906 " fill-opacity="1" fill-rule="nonzero"/></g><g clip-path="url(#2ae6cd3319)"><path fill="#ffffff" d="M 2.613281 11.128906 C 3.046875 11.128906 3.398438 10.777344 3.398438 10.34375 C 3.398438 9.90625 3.046875 9.554688 2.613281 9.554688 C 2.179688 9.554688 1.824219 9.90625 1.824219 10.34375 C 1.824219 10.777344 2.179688 11.128906 2.613281 11.128906 Z M 2.613281 11.128906 " fill-opacity="1" fill-rule="nonzero"/></g></g></g></g><path fill="#ffa78e" d="M 207.621094 109.574219 C 207.621094 109.574219 209.101562 120.246094 210.4375 122.085938 C 211.773438 123.921875 217.769531 129.011719 217.769531 129.011719 L 221.5625 128.460938 L 224.101562 130.863281 L 222.261719 132.132812 L 220.234375 131.222656 C 220.234375 131.222656 218.722656 131.429688 216.792969 131.304688 C 214.855469 131.1875 207.300781 126.082031 205.902344 123.390625 C 204.511719 120.703125 202.9375 110.820312 202.9375 110.820312 L 207.613281 109.570312 Z M 207.621094 109.574219 " fill-opacity="1" fill-rule="nonzero"/><path fill="#cc004d" d="M 208.890625 112.660156 L 208.515625 112.726562 C 208.253906 110.21875 207.203125 102.597656 204.328125 104.558594 C 201.570312 106.441406 202.339844 111.777344 202.746094 113.773438 L 202.289062 113.855469 L 202.707031 115.167969 L 209.0625 113.949219 L 208.890625 112.648438 Z M 208.890625 112.660156 " fill-opacity="1" fill-rule="nonzero"/><path fill="#000000" d="M 206.496094 107.617188 L 205.792969 106.117188 L 203.589844 108.320312 C 203.589844 108.320312 202.964844 109.261719 202.332031 110.226562 C 202.363281 111.652344 202.578125 112.980469 202.738281 113.773438 L 202.28125 113.855469 L 202.699219 115.171875 L 206.285156 114.484375 C 206.9375 110.757812 206.488281 107.613281 206.488281 107.613281 Z M 206.496094 107.617188 " fill-opacity="0.2" fill-rule="nonzero"/><path fill="#263238" d="M 206.714844 88.472656 C 206.714844 88.472656 214.292969 90.109375 210.265625 93.710938 L 206.9375 90.800781 L 206.714844 88.480469 Z M 206.714844 88.472656 " fill-opacity="1" fill-rule="nonzero"/><path fill="#ffa78e" d="M 217.234375 168.480469 L 212.410156 180.292969 L 209.0625 178.992188 L 211.761719 167.25 Z M 217.234375 168.480469 " fill-opacity="1" fill-rule="nonzero"/><path fill="#000000" d="M 212 166.414062 L 210.097656 174.695312 L 214.222656 175.613281 L 217.472656 167.640625 Z M 212 166.414062 " fill-opacity="0.2" fill-rule="nonzero"/><path fill="#263238" d="M 213.183594 180.015625 C 213.796875 181.40625 214.214844 182.5625 216.726562 184.046875 C 217.273438 184.363281 216.347656 185.8125 214.980469 185.195312 C 212.722656 184.175781 213.3125 184.15625 211.371094 183.320312 C 209.746094 182.605469 208.539062 182.164062 207.210938 181.617188 C 207.175781 181.601562 207.144531 181.585938 207.113281 181.558594 C 207.113281 181.558594 207.109375 181.558594 207.105469 181.554688 C 206.871094 181.378906 206.824219 181.046875 207 180.8125 L 208.953125 178.136719 C 209.039062 178.015625 209.203125 177.972656 209.339844 178.027344 L 212.507812 179.390625 C 212.796875 179.511719 213.035156 179.730469 213.179688 180.011719 Z M 213.183594 180.015625 " fill-opacity="1" fill-rule="nonzero"/><path fill="#263238" d="M 228.035156 140.714844 C 227.421875 148.347656 216.464844 173.546875 216.464844 173.546875 L 209.960938 171.734375 C 209.960938 171.734375 214.929688 147.519531 218.171875 143.515625 C 218.171875 143.515625 217.113281 143.53125 215.410156 143.546875 C 209.484375 143.597656 195.746094 143.589844 191.785156 142.535156 C 188.957031 141.785156 183.050781 140.273438 184.609375 130.820312 L 191.933594 130.566406 L 200.464844 130.269531 C 200.464844 130.269531 228.878906 130.296875 228.035156 140.714844 Z M 228.035156 140.714844 " fill-opacity="1" fill-rule="nonzero"/><path fill="#000000" d="M 215.410156 143.546875 C 209.484375 143.601562 195.746094 143.589844 191.785156 142.535156 C 188.957031 141.785156 183.050781 140.273438 184.609375 130.820312 L 191.933594 130.566406 C 197.699219 131.246094 205.230469 132.386719 210.367188 134.59375 C 212.863281 135.664062 214.597656 137.601562 215.109375 139.878906 C 215.257812 140.546875 215.367188 142.152344 215.410156 143.546875 Z M 215.410156 143.546875 " fill-opacity="0.2" fill-rule="nonzero"/><path fill="#ffa78e" d="M 205.925781 168.058594 L 203.515625 180.101562 L 199.886719 179.929688 L 200.316406 167.886719 Z M 205.925781 168.058594 " fill-opacity="1" fill-rule="nonzero"/><path fill="#000000" d="M 205.925781 168.058594 L 200.316406 167.886719 L 200.066406 175.09375 L 204.488281 175.246094 Z M 205.925781 168.058594 " fill-opacity="0.2" fill-rule="nonzero"/><path fill="#263238" d="M 204.066406 180.386719 C 204.660156 181.832031 205.042969 183.019531 207.5625 184.609375 C 208.105469 184.960938 207.117188 186.414062 205.75 185.738281 C 203.480469 184.628906 204.082031 184.632812 202.136719 183.714844 C 200.492188 182.9375 199.277344 182.453125 197.945312 181.851562 L 197.839844 181.796875 C 197.601562 181.613281 197.558594 181.269531 197.746094 181.03125 L 199.820312 178.359375 C 199.914062 178.238281 200.078125 178.195312 200.214844 178.261719 L 203.390625 179.746094 C 203.6875 179.863281 203.929688 180.09375 204.066406 180.382812 Z M 204.066406 180.386719 " fill-opacity="1" fill-rule="nonzero"/><path fill="#263238" d="M 180.351562 130.808594 C 180.351562 130.808594 178.285156 138.257812 181.707031 141.199219 C 186.496094 145.316406 203.808594 144.0625 203.808594 144.0625 C 200.820312 153.628906 199.484375 172.628906 199.484375 172.628906 L 205.972656 172.628906 C 205.972656 172.628906 214.8125 146.640625 213.507812 139.917969 C 212.203125 133.195312 189.011719 130.820312 189.011719 130.820312 L 180.347656 130.808594 Z M 180.351562 130.808594 " fill-opacity="1" fill-rule="nonzero"/><path fill="#cc004d" d="M 209.382812 172.488281 L 216.746094 174.339844 L 218.246094 171.191406 L 210.160156 168.898438 Z M 209.382812 172.488281 " fill-opacity="1" fill-rule="nonzero"/><path fill="#cc004d" d="M 198.84375 173.53125 L 206.351562 173.917969 L 207.128906 170.613281 L 198.84375 170.226562 Z M 198.84375 173.53125 " fill-opacity="1" fill-rule="nonzero"/><path fill="#cc004d" d="M 202.285156 120.496094 C 204.171875 114.878906 206.578125 110.605469 206.847656 105.816406 C 200.320312 96.398438 187.554688 101.964844 187.554688 101.964844 C 179.832031 116.445312 180.347656 130.808594 180.347656 130.808594 C 197.898438 130.808594 198.902344 130.507812 198.902344 130.507812 C 198.902344 130.507812 198.96875 128.027344 202.285156 120.496094 Z M 202.285156 120.496094 " fill-opacity="1" fill-rule="nonzero"/><path fill="#000000" d="M 196.390625 101.6875 C 196.671875 103.34375 197.257812 106.339844 197.957031 106.773438 C 198.921875 107.355469 200.347656 106.539062 200.347656 106.539062 C 200.347656 106.539062 201.507812 108.109375 202.742188 107.0625 C 203.429688 106.40625 203.96875 105.605469 204.316406 104.71875 C 203.953125 105.335938 203.5 105.886719 202.964844 106.359375 C 201.726562 107.398438 200.566406 105.839844 200.566406 105.839844 C 200.566406 105.839844 199.136719 106.644531 198.175781 106.074219 C 197.550781 105.695312 196.816406 103.324219 196.390625 101.695312 Z M 196.390625 101.6875 " fill-opacity="0.2" fill-rule="nonzero"/><path fill="#cc004d" d="M 197.964844 99.402344 L 199.710938 99.996094 L 198.339844 101.1875 Z M 197.964844 99.402344 " fill-opacity="1" fill-rule="nonzero"/><path fill="#000000" d="M 197.964844 99.402344 L 199.710938 99.996094 L 198.339844 101.1875 Z M 197.964844 99.402344 " fill-opacity="0.2" fill-rule="nonzero"/><path fill="#ffa78e" d="M 203.496094 101.191406 L 203.976562 102.597656 C 203.976562 102.597656 201.488281 105.199219 200.773438 105.230469 C 200.058594 105.257812 197.960938 100.335938 197.960938 100.335938 C 200.730469 99.082031 200.472656 97.707031 200.472656 97.707031 L 203.492188 101.191406 Z M 203.496094 101.191406 " fill-opacity="1" fill-rule="nonzero"/><path fill="#000000" d="M 202.589844 103.953125 C 203.324219 103.28125 203.976562 102.597656 203.976562 102.597656 L 203.496094 101.191406 L 200.800781 98.082031 C 200.457031 99.433594 200.113281 102.269531 202.589844 103.953125 Z M 202.589844 103.953125 " fill-opacity="0.2" fill-rule="nonzero"/><path fill="#cc004d" d="M 204.917969 103.609375 C 204.46875 104.65625 203.800781 105.601562 202.964844 106.378906 C 201.726562 107.417969 200.566406 105.859375 200.566406 105.859375 C 200.566406 105.859375 199.140625 106.664062 198.179688 106.09375 C 197.214844 105.519531 196.003906 100.246094 196.003906 100.246094 L 197.964844 99.402344 L 200.664062 105.101562 L 204.300781 102.09375 L 204.917969 103.613281 Z M 204.917969 103.609375 " fill-opacity="1" fill-rule="nonzero"/><path fill="#ffa78e" d="M 200.371094 92.898438 C 200.371094 92.054688 200.585938 91.21875 201.007812 90.484375 C 202.328125 88.167969 205.273438 87.359375 207.589844 88.679688 C 211.046875 90.546875 211.144531 95.988281 210.117188 99.175781 C 209.839844 100.105469 209.285156 100.925781 208.527344 101.53125 C 206.464844 103.175781 203.460938 102.839844 201.816406 100.785156 C 200.113281 98.695312 200.339844 96.554688 200.382812 92.882812 L 200.371094 92.890625 Z M 200.371094 92.898438 " fill-opacity="1" fill-rule="nonzero"/><path fill="#263238" d="M 206.816406 95.175781 C 207.019531 95.1875 207.136719 95.464844 207.089844 95.753906 C 207.042969 96.046875 206.863281 96.246094 206.667969 96.222656 C 206.46875 96.203125 206.347656 95.933594 206.394531 95.640625 C 206.4375 95.347656 206.617188 95.15625 206.816406 95.175781 Z M 206.816406 95.175781 " fill-opacity="1" fill-rule="nonzero"/><path fill="#263238" d="M 210.121094 95.792969 C 210.324219 95.8125 210.445312 96.074219 210.398438 96.375 C 210.351562 96.671875 210.171875 96.867188 209.96875 96.84375 C 209.769531 96.824219 209.65625 96.554688 209.699219 96.261719 C 209.746094 95.96875 209.921875 95.769531 210.121094 95.792969 Z M 210.121094 95.792969 " fill-opacity="1" fill-rule="nonzero"/><path fill="#263238" d="M 205.933594 94.480469 C 206.273438 94.210938 206.734375 94.125 207.148438 94.25 C 207.148438 94.25 207.148438 94.25 207.152344 94.25 C 207.242188 94.277344 207.339844 94.230469 207.367188 94.144531 C 207.394531 94.054688 207.347656 93.960938 207.261719 93.925781 C 206.722656 93.757812 206.136719 93.875 205.691406 94.230469 C 205.621094 94.292969 205.613281 94.398438 205.667969 94.46875 C 205.691406 94.488281 205.71875 94.496094 205.746094 94.507812 C 205.808594 94.535156 205.875 94.527344 205.921875 94.480469 Z M 205.933594 94.480469 " fill-opacity="1" fill-rule="nonzero"/><path fill="#263238" d="M 210.957031 95.40625 C 211.039062 95.355469 211.0625 95.25 211.015625 95.167969 C 210.742188 94.675781 210.246094 94.339844 209.683594 94.265625 C 209.609375 94.265625 209.546875 94.320312 209.527344 94.394531 C 209.503906 94.488281 209.566406 94.582031 209.65625 94.601562 C 210.109375 94.675781 210.503906 94.949219 210.71875 95.355469 C 210.746094 95.402344 210.800781 95.4375 210.855469 95.441406 C 210.894531 95.441406 210.929688 95.421875 210.953125 95.398438 Z M 210.957031 95.40625 " fill-opacity="1" fill-rule="nonzero"/><path fill="#ba4d3c" d="M 208.164062 99.042969 C 208.621094 99.253906 209.144531 99.253906 209.601562 99.042969 C 209.160156 98.15625 208.839844 97.214844 208.640625 96.246094 L 208.160156 99.046875 Z M 208.164062 99.042969 " fill-opacity="1" fill-rule="nonzero"/><path fill="#263238" d="M 200.144531 95.273438 C 198.71875 90.074219 201.027344 88.722656 203.523438 87.792969 C 206.023438 86.863281 207.40625 87.753906 208.207031 88.632812 C 208.453125 88.902344 208.949219 89.738281 207.347656 89.847656 C 206.375 89.886719 205.402344 89.808594 204.449219 89.621094 C 204.0625 89.550781 203.667969 89.707031 203.433594 90.023438 C 202.878906 90.742188 201.984375 92.097656 201.992188 93.28125 C 202.066406 94.191406 201.726562 95.089844 201.066406 95.722656 L 200.140625 95.273438 Z M 200.144531 95.273438 " fill-opacity="1" fill-rule="nonzero"/><path fill="#cc004d" d="M 198.339844 121.378906 L 198.347656 121.378906 C 198.695312 121.378906 198.976562 121.664062 198.96875 122.011719 C 198.964844 122.359375 198.683594 122.640625 198.335938 122.636719 C 197.988281 122.636719 197.707031 122.351562 197.710938 122.003906 C 197.710938 121.65625 198 121.378906 198.339844 121.378906 Z M 198.339844 121.378906 " fill-opacity="1" fill-rule="nonzero"/><path fill="#cc004d" d="M 196.96875 128.027344 L 196.976562 128.027344 C 197.324219 128.027344 197.605469 128.3125 197.601562 128.660156 C 197.601562 129.007812 197.316406 129.289062 196.96875 129.285156 C 196.621094 129.285156 196.339844 129 196.34375 128.652344 C 196.34375 128.308594 196.625 128.027344 196.96875 128.027344 Z M 196.96875 128.027344 " fill-opacity="1" fill-rule="nonzero"/><path fill="#ffa78e" d="M 200.183594 94.089844 C 201.1875 94.273438 201.675781 95.699219 201.683594 96.632812 C 201.691406 97.636719 200.96875 98.390625 200.078125 97.789062 C 199.398438 97.324219 198.921875 96.625 198.746094 95.816406 C 198.550781 94.828125 199.175781 93.902344 200.183594 94.089844 Z M 200.183594 94.089844 " fill-opacity="1" fill-rule="nonzero"/><path fill="#263238" d="M 204.796875 98.992188 C 204.796875 98.992188 205.691406 99.175781 207.96875 100.226562 C 207.386719 100.789062 206.632812 101.117188 205.46875 100.570312 C 204.3125 100.019531 204.796875 98.992188 204.796875 98.992188 Z M 204.796875 98.992188 " fill-opacity="1" fill-rule="nonzero"/><path fill="#a02724" d="M 206.261719 100.277344 C 205.703125 100.011719 205.234375 99.953125 204.839844 100.027344 C 204.949219 100.222656 205.148438 100.410156 205.472656 100.570312 C 206.03125 100.832031 206.496094 100.894531 206.894531 100.820312 C 206.785156 100.625 206.589844 100.433594 206.265625 100.28125 Z M 206.261719 100.277344 " fill-opacity="1" fill-rule="nonzero"/><path fill="#ffffff" d="M 204.910156 99.015625 C 204.910156 99.191406 204.90625 99.367188 205.113281 99.519531 C 205.570312 99.773438 206.847656 100.195312 207.203125 100.277344 C 207.429688 100.339844 207.636719 100.351562 207.871094 100.179688 C 206.117188 99.371094 205.207031 99.097656 204.910156 99.015625 Z M 204.910156 99.015625 " fill-opacity="1" fill-rule="nonzero"/><path fill="#263238" d="M 208.558594 133.976562 L 217.1875 134.023438 L 217.195312 132.636719 L 208.566406 132.589844 Z M 208.558594 133.976562 " fill-opacity="1" fill-rule="nonzero"/><path fill="#263238" d="M 209.273438 133.980469 L 198.292969 133.917969 C 197.9375 133.917969 197.644531 133.625 197.648438 133.269531 L 197.652344 132.535156 L 209.28125 132.597656 L 209.273438 133.984375 Z M 209.273438 133.980469 " fill-opacity="1" fill-rule="nonzero"/><path fill="#ffffff" d="M 209.273438 133.980469 L 198.292969 133.917969 C 197.9375 133.917969 197.644531 133.625 197.648438 133.269531 L 197.652344 132.535156 L 209.28125 132.597656 L 209.273438 133.984375 Z M 209.273438 133.980469 " fill-opacity="0.3" fill-rule="nonzero"/><path fill="#263238" d="M 206.144531 133.519531 L 207.53125 133.527344 L 207.535156 133.039062 L 206.144531 133.03125 Z M 206.144531 133.519531 " fill-opacity="1" fill-rule="nonzero"/><path fill="#263238" d="M 203.980469 133.511719 L 205.367188 133.519531 L 205.371094 133.03125 L 203.980469 133.023438 Z M 203.980469 133.511719 " fill-opacity="1" fill-rule="nonzero"/><path fill="#263238" d="M 210.917969 132.617188 L 210 132.609375 L 213.671875 120.113281 L 214.589844 120.117188 Z M 210.917969 132.617188 " fill-opacity="1" fill-rule="nonzero"/><path fill="#ffffff" d="M 210.917969 132.617188 L 210 132.609375 L 213.671875 120.113281 L 214.589844 120.117188 Z M 210.917969 132.617188 " fill-opacity="0.3" fill-rule="nonzero"/><path fill="#263238" d="M 210.582031 132.617188 L 226.777344 132.703125 L 230.449219 120.203125 L 214.25 120.117188 Z M 210.582031 132.617188 " fill-opacity="1" fill-rule="nonzero"/><path fill="#ffffff" d="M 210.582031 132.617188 L 226.777344 132.703125 L 230.449219 120.203125 L 214.25 120.117188 Z M 210.582031 132.617188 " fill-opacity="0.6" fill-rule="nonzero"/><path fill="#263238" d="M 209.789062 132.609375 C 209.964844 132.609375 226.472656 132.703125 226.648438 132.703125 C 226.933594 132.703125 227.164062 133.015625 227.15625 133.398438 C 227.15625 133.777344 226.925781 134.089844 226.636719 134.089844 C 226.351562 134.089844 210.0625 133.996094 209.78125 133.996094 C 209.492188 133.996094 209.265625 133.683594 209.269531 133.300781 C 209.269531 132.921875 209.503906 132.609375 209.789062 132.609375 Z M 209.789062 132.609375 " fill-opacity="1" fill-rule="nonzero"/><path fill="#ffffff" d="M 209.789062 132.609375 C 209.964844 132.609375 226.472656 132.703125 226.648438 132.703125 C 226.933594 132.703125 227.164062 133.015625 227.15625 133.398438 C 227.15625 133.777344 226.925781 134.089844 226.636719 134.089844 C 226.351562 134.089844 210.0625 133.996094 209.78125 133.996094 C 209.492188 133.996094 209.265625 133.683594 209.269531 133.300781 C 209.269531 132.921875 209.503906 132.609375 209.789062 132.609375 Z M 209.789062 132.609375 " fill-opacity="0.5" fill-rule="nonzero"/><path fill="#263238" d="M 209.269531 133.300781 C 209.269531 133.683594 209.5 133.996094 209.78125 133.996094 C 210.066406 133.996094 210.292969 133.691406 210.300781 133.308594 C 210.300781 132.925781 210.070312 132.609375 209.789062 132.609375 C 209.503906 132.609375 209.273438 132.914062 209.269531 133.300781 Z M 209.269531 133.300781 " fill-opacity="1" fill-rule="nonzero"/><path fill="#ffffff" d="M 209.269531 133.300781 C 209.269531 133.683594 209.5 133.996094 209.78125 133.996094 C 210.066406 133.996094 210.292969 133.691406 210.300781 133.308594 C 210.300781 132.925781 210.070312 132.609375 209.789062 132.609375 C 209.503906 132.609375 209.273438 132.914062 209.269531 133.300781 Z M 209.269531 133.300781 " fill-opacity="0.3" fill-rule="nonzero"/><path fill="#000000" d="M 193.351562 121.039062 C 192.574219 119.96875 191.746094 116.019531 191.171875 112.75 L 191.917969 112.605469 L 191.742188 111.253906 L 191.351562 111.324219 C 191.085938 108.765625 190.027344 101.089844 187.15625 102.75 C 186.320312 104.375 185.59375 106 184.949219 107.613281 C 184.847656 109.488281 185.148438 111.382812 185.359375 112.410156 L 184.886719 112.496094 L 185.324219 113.863281 L 186.335938 113.667969 C 186.945312 116.824219 187.824219 120.8125 188.648438 122.398438 C 189.726562 124.476562 194.355469 127.945312 197.480469 129.636719 C 200.972656 129.019531 201.777344 128.578125 201.777344 128.578125 C 201.777344 128.578125 201.664062 128.441406 201.539062 128.152344 L 200.976562 128.230469 C 200.976562 128.230469 194.746094 122.941406 193.359375 121.035156 Z M 193.351562 121.039062 " fill-opacity="0.2" fill-rule="nonzero"/><path fill="#ffa78e" d="M 192.496094 108.097656 C 192.496094 108.097656 193.515625 119.238281 194.8125 121.207031 C 196.109375 123.179688 202.082031 128.75 202.082031 128.75 L 206.042969 128.363281 L 208.558594 130.980469 L 206.589844 132.210938 L 204.53125 131.167969 C 204.53125 131.167969 202.953125 131.304688 200.953125 131.085938 C 198.957031 130.867188 191.359375 125.207031 190.046875 122.347656 C 188.730469 119.488281 187.582031 109.160156 187.582031 109.160156 L 192.496094 108.09375 Z M 192.496094 108.097656 " fill-opacity="1" fill-rule="nonzero"/><path fill="#cc004d" d="M 193.382812 110.503906 L 192.992188 110.574219 C 192.71875 107.972656 191.628906 100.058594 188.644531 102.09375 C 185.777344 104.046875 186.578125 109.59375 187 111.667969 L 186.527344 111.753906 L 186.960938 113.121094 L 193.558594 111.859375 Z M 193.382812 110.503906 " fill-opacity="1" fill-rule="nonzero"/><path fill="#cc004d" d="M 227.609375 104.527344 L 218.246094 104.527344 C 216.679688 104.527344 215.410156 105.796875 215.410156 107.363281 L 215.410156 112.90625 C 215.410156 114.472656 216.679688 115.742188 218.246094 115.742188 L 220.925781 115.742188 L 220.925781 117.894531 C 220.925781 118.429688 221.574219 118.699219 221.953125 118.320312 L 224.535156 115.738281 L 227.609375 115.738281 C 229.179688 115.738281 230.449219 114.46875 230.449219 112.902344 L 230.449219 107.359375 C 230.449219 105.792969 229.179688 104.523438 227.609375 104.523438 Z M 227.609375 104.527344 " fill-opacity="1" fill-rule="nonzero"/><path fill="#ffffff" d="M 225.347656 107.171875 L 220.851562 107.171875 C 220.808594 106.800781 220.785156 106.617188 220.742188 106.246094 L 218.265625 106.246094 C 218.320312 106.460938 218.347656 106.5625 218.398438 106.777344 L 220.183594 106.777344 C 220.207031 106.9375 220.222656 107.015625 220.246094 107.179688 C 220.363281 107.964844 220.425781 108.359375 220.546875 109.144531 C 220.578125 109.359375 220.59375 109.464844 220.625 109.679688 C 220.746094 110.464844 220.808594 110.863281 220.925781 111.648438 C 220.988281 112.066406 221.023438 112.277344 221.089844 112.695312 L 226.023438 112.695312 C 226.070312 112.480469 226.09375 112.378906 226.148438 112.164062 L 221.453125 112.164062 C 221.425781 111.953125 221.414062 111.851562 221.390625 111.644531 L 226.496094 111.644531 C 226.691406 110.855469 226.785156 110.460938 226.980469 109.675781 C 227.035156 109.460938 227.0625 109.355469 227.117188 109.140625 C 227.308594 108.355469 227.40625 107.960938 227.601562 107.171875 Z M 220.917969 107.707031 L 222.507812 107.707031 C 222.527344 108.277344 222.535156 108.570312 222.550781 109.140625 L 221.089844 109.140625 C 221.023438 108.570312 220.984375 108.277344 220.917969 107.707031 Z M 221.320312 111.109375 C 221.253906 110.539062 221.21875 110.246094 221.152344 109.675781 L 222.566406 109.675781 C 222.585938 110.246094 222.589844 110.539062 222.609375 111.109375 Z M 224.378906 111.109375 L 223.089844 111.109375 C 223.089844 110.539062 223.089844 110.246094 223.089844 109.675781 L 224.507812 109.675781 C 224.453125 110.246094 224.425781 110.539062 224.375 111.109375 Z M 224.558594 109.140625 L 223.097656 109.140625 C 223.097656 108.570312 223.097656 108.277344 223.097656 107.707031 L 224.6875 107.707031 C 224.636719 108.277344 224.605469 108.570312 224.554688 109.140625 Z M 226.144531 111.109375 L 224.855469 111.109375 C 224.925781 110.539062 224.964844 110.246094 225.035156 109.675781 L 226.453125 109.675781 C 226.328125 110.246094 226.265625 110.539062 226.148438 111.109375 Z M 226.566406 109.140625 L 225.101562 109.140625 C 225.175781 108.570312 225.210938 108.277344 225.285156 107.707031 L 226.878906 107.707031 C 226.753906 108.277344 226.691406 108.570312 226.570312 109.140625 Z M 226.566406 109.140625 " fill-opacity="1" fill-rule="nonzero"/><path fill="#ffffff" d="M 221.390625 113.1875 C 221.039062 113.1875 220.757812 113.46875 220.757812 113.816406 C 220.757812 114.164062 221.039062 114.445312 221.390625 114.445312 C 221.738281 114.445312 222.019531 114.164062 222.019531 113.816406 C 222.019531 113.46875 221.738281 113.1875 221.390625 113.1875 Z M 221.390625 113.1875 " fill-opacity="1" fill-rule="nonzero"/><path fill="#ffffff" d="M 225.878906 114.449219 C 226.226562 114.449219 226.507812 114.167969 226.507812 113.820312 C 226.507812 113.472656 226.226562 113.191406 225.878906 113.191406 C 225.53125 113.191406 225.25 113.472656 225.25 113.820312 C 225.25 114.167969 225.53125 114.449219 225.878906 114.449219 Z M 225.878906 114.449219 " fill-opacity="1" fill-rule="nonzero"/><path fill="#263238" d="M 96.9375 148.6875 L 95.800781 148.628906 L 96.070312 143.460938 C 96.257812 139.945312 99.265625 137.085938 102.785156 137.085938 C 104.5 137.085938 106.078125 137.753906 107.234375 138.96875 C 108.386719 140.183594 108.972656 141.804688 108.886719 143.519531 L 108.617188 148.683594 L 107.476562 148.621094 L 107.75 143.457031 C 107.820312 142.054688 107.347656 140.742188 106.410156 139.753906 C 105.472656 138.769531 104.1875 138.226562 102.789062 138.226562 C 99.871094 138.226562 97.367188 140.597656 97.214844 143.519531 L 96.945312 148.683594 Z M 96.9375 148.6875 " fill-opacity="1" fill-rule="nonzero"/><path fill="#cc004d" d="M 121.382812 146.390625 L 87.691406 146.390625 L 86.546875 186.347656 L 91.542969 185.210938 L 96.539062 186.347656 L 122.527344 186.347656 Z M 121.382812 146.390625 " fill-opacity="1" fill-rule="nonzero"/><path fill="#ffffff" d="M 121.382812 146.390625 L 87.691406 146.390625 L 86.546875 186.347656 L 91.542969 185.210938 L 96.539062 186.347656 L 122.527344 186.347656 Z M 121.382812 146.390625 " fill-opacity="0.6" fill-rule="nonzero"/><path fill="#cc004d" d="M 96.539062 186.347656 L 91.542969 185.210938 L 86.546875 186.347656 L 87.691406 146.390625 L 95.398438 146.390625 Z M 96.539062 186.347656 " fill-opacity="1" fill-rule="nonzero"/><path fill="#ffffff" d="M 96.539062 186.347656 L 91.542969 185.210938 L 86.546875 186.347656 L 87.691406 146.390625 L 95.398438 146.390625 Z M 96.539062 186.347656 " fill-opacity="0.3" fill-rule="nonzero"/><path fill="#263238" d="M 114.25 148.6875 L 113.980469 143.523438 C 113.828125 140.605469 111.328125 138.230469 108.40625 138.230469 C 107.007812 138.230469 105.722656 138.773438 104.785156 139.757812 C 103.847656 140.746094 103.375 142.058594 103.445312 143.460938 L 103.71875 148.628906 L 102.578125 148.6875 L 102.308594 143.523438 C 102.21875 141.808594 102.804688 140.1875 103.960938 138.972656 C 105.117188 137.757812 106.695312 137.089844 108.410156 137.089844 C 111.929688 137.089844 114.9375 139.949219 115.125 143.464844 L 115.394531 148.632812 L 114.257812 148.695312 Z M 114.25 148.6875 " fill-opacity="1" fill-rule="nonzero"/><path fill="#ffffff" d="M 114.25 148.6875 L 113.980469 143.523438 C 113.828125 140.605469 111.328125 138.230469 108.40625 138.230469 C 107.007812 138.230469 105.722656 138.773438 104.785156 139.757812 C 103.847656 140.746094 103.375 142.058594 103.445312 143.460938 L 103.71875 148.628906 L 102.578125 148.6875 L 102.308594 143.523438 C 102.21875 141.808594 102.804688 140.1875 103.960938 138.972656 C 105.117188 137.757812 106.695312 137.089844 108.410156 137.089844 C 111.929688 137.089844 114.9375 139.949219 115.125 143.464844 L 115.394531 148.632812 L 114.257812 148.695312 Z M 114.25 148.6875 " fill-opacity="0.2" fill-rule="nonzero"/><path fill="#ffffff" d="M 101.167969 160.988281 L 116.832031 160.988281 C 117.183594 160.988281 117.46875 161.273438 117.46875 161.625 L 117.46875 164.152344 C 117.46875 164.503906 117.183594 164.789062 116.832031 164.789062 L 101.167969 164.789062 C 100.816406 164.789062 100.53125 164.503906 100.53125 164.152344 L 100.53125 161.625 C 100.53125 161.273438 100.816406 160.988281 101.167969 160.988281 Z M 101.167969 160.988281 " fill-opacity="1" fill-rule="nonzero"/><path fill="#263238" d="M 81.453125 161.109375 L 80.691406 161.070312 L 80.871094 157.605469 C 80.996094 155.25 83.011719 153.332031 85.371094 153.332031 C 86.523438 153.332031 87.578125 153.777344 88.351562 154.59375 C 89.125 155.410156 89.519531 156.496094 89.457031 157.644531 L 89.277344 161.109375 L 88.515625 161.070312 L 88.695312 157.605469 C 88.742188 156.667969 88.425781 155.785156 87.800781 155.121094 C 87.171875 154.460938 86.3125 154.097656 85.371094 154.097656 C 83.417969 154.097656 81.738281 155.6875 81.640625 157.648438 L 81.457031 161.113281 Z M 81.453125 161.109375 " fill-opacity="1" fill-rule="nonzero"/><path fill="#cc004d" d="M 97.839844 159.5625 L 75.25 159.5625 L 74.484375 186.347656 L 77.835938 185.585938 L 81.1875 186.347656 L 98.609375 186.347656 Z M 97.839844 159.5625 " fill-opacity="1" fill-rule="nonzero"/><path fill="#cc004d" d="M 81.1875 186.347656 L 77.835938 185.585938 L 74.484375 186.347656 L 75.25 159.5625 L 80.417969 159.5625 Z M 81.1875 186.347656 " fill-opacity="1" fill-rule="nonzero"/><path fill="#000000" d="M 81.1875 186.347656 L 77.835938 185.585938 L 74.484375 186.347656 L 75.25 159.5625 L 80.417969 159.5625 Z M 81.1875 186.347656 " fill-opacity="0.2" fill-rule="nonzero"/><path fill="#263238" d="M 93.058594 161.109375 L 92.878906 157.644531 C 92.777344 155.683594 91.097656 154.09375 89.144531 154.09375 C 88.203125 154.09375 87.347656 154.457031 86.71875 155.117188 C 86.085938 155.78125 85.769531 156.660156 85.820312 157.601562 L 86 161.066406 L 85.238281 161.101562 L 85.058594 157.636719 C 84.996094 156.484375 85.390625 155.402344 86.164062 154.589844 C 86.9375 153.773438 87.996094 153.324219 89.144531 153.324219 C 91.503906 153.324219 93.519531 155.242188 93.644531 157.601562 L 93.824219 161.066406 L 93.0625 161.101562 Z M 93.058594 161.109375 " fill-opacity="1" fill-rule="nonzero"/><path fill="#ffffff" d="M 93.058594 161.109375 L 92.878906 157.644531 C 92.777344 155.683594 91.097656 154.09375 89.144531 154.09375 C 88.203125 154.09375 87.347656 154.457031 86.71875 155.117188 C 86.085938 155.78125 85.769531 156.660156 85.820312 157.601562 L 86 161.066406 L 85.238281 161.101562 L 85.058594 157.636719 C 84.996094 156.484375 85.390625 155.402344 86.164062 154.589844 C 86.9375 153.773438 87.996094 153.324219 89.144531 153.324219 C 91.503906 153.324219 93.519531 155.242188 93.644531 157.601562 L 93.824219 161.066406 L 93.0625 161.101562 Z M 93.058594 161.109375 " fill-opacity="0.2" fill-rule="nonzero"/><path fill="#ffffff" d="M 94.574219 169.351562 L 84.496094 169.351562 C 84.140625 169.351562 83.855469 169.636719 83.855469 169.988281 L 83.855469 171.261719 C 83.855469 171.617188 84.140625 171.902344 84.496094 171.902344 L 94.574219 171.902344 C 94.925781 171.902344 95.214844 171.617188 95.214844 171.261719 L 95.214844 169.988281 C 95.214844 169.636719 94.925781 169.351562 94.574219 169.351562 Z M 94.574219 169.351562 " fill-opacity="1" fill-rule="nonzero"/><path fill="#ffa79e" d="M 116.230469 183.738281 L 112.601562 183.355469 L 112.78125 174.890625 L 116.410156 175.265625 Z M 116.230469 183.738281 " fill-opacity="1" fill-rule="nonzero"/><path fill="#ffa79e" d="M 146.925781 171.582031 L 143.679688 173.238281 L 138.796875 166.246094 L 142.046875 164.589844 Z M 146.925781 171.582031 " fill-opacity="1" fill-rule="nonzero"/><path fill="#263238" d="M 143 172.789062 L 146.339844 170.410156 C 146.457031 170.324219 146.621094 170.335938 146.71875 170.441406 L 148.984375 172.8125 C 149.21875 173.058594 149.171875 173.484375 148.882812 173.679688 C 147.707031 174.488281 147.097656 174.816406 145.628906 175.867188 C 144.726562 176.507812 143.472656 177.542969 142.230469 178.433594 C 141.007812 179.300781 140.035156 178.136719 140.472656 177.65625 C 142.445312 175.5 142.320312 174.546875 142.632812 173.332031 C 142.691406 173.109375 142.824219 172.921875 143 172.792969 Z M 143 172.789062 " fill-opacity="1" fill-rule="nonzero"/><path fill="#263238" d="M 112.292969 182.898438 L 116.367188 183.324219 C 116.515625 183.335938 116.625 183.453125 116.628906 183.601562 L 116.757812 186.875 C 116.773438 187.210938 116.449219 187.496094 116.109375 187.460938 C 114.691406 187.289062 114.019531 187.132812 112.226562 186.945312 C 111.125 186.832031 107.941406 186.609375 106.417969 186.453125 C 104.929688 186.296875 104.972656 184.78125 105.621094 184.710938 C 108.53125 184.394531 110.621094 183.761719 111.664062 183.054688 C 111.847656 182.929688 112.078125 182.875 112.292969 182.898438 Z M 112.292969 182.898438 " fill-opacity="1" fill-rule="nonzero"/><g mask="url(#a9f42fa7aa)"><g transform="matrix(1, 0, 0, 1, 112, 164)"><g clip-path="url(#09cdfd9c34)"><g clip-path="url(#34593d78cf)"><path fill="#000000" d="M 0.78125 10.886719 L 0.6875 15.253906 L 4.316406 15.636719 L 4.410156 11.269531 Z M 0.78125 10.886719 " fill-opacity="1" fill-rule="nonzero"/></g><g clip-path="url(#2f311fbb6e)"><path fill="#000000" d="M 30.046875 0.589844 L 26.796875 2.25 L 29.3125 5.851562 L 32.566406 4.195312 Z M 30.046875 0.589844 " fill-opacity="1" fill-rule="nonzero"/></g></g></g></g><path fill="#263238" d="M 114.519531 101.695312 C 114.519531 101.695312 110.757812 129.675781 110.640625 140.796875 C 110.527344 152.367188 111.996094 178.332031 111.996094 178.332031 L 116.902344 178.847656 C 116.902344 178.847656 118.890625 153.308594 119.6875 141.964844 C 120.554688 129.605469 125.359375 102.03125 125.359375 102.03125 L 114.511719 101.6875 Z M 114.519531 101.695312 " fill-opacity="1" fill-rule="nonzero"/><path fill="#cc004d" d="M 117.3125 179.066406 L 111.550781 178.46875 L 111.324219 176.589844 L 117.792969 177.039062 Z M 117.3125 179.066406 " fill-opacity="1" fill-rule="nonzero"/><path fill="#000000" d="M 120.6875 108.878906 C 116.820312 116.082031 119.304688 129.511719 120.433594 134.515625 C 121.332031 127.082031 122.726562 118.003906 123.804688 111.34375 C 123.371094 107.539062 122.472656 105.5625 120.6875 108.882812 Z M 120.6875 108.878906 " fill-opacity="0.6" fill-rule="nonzero"/><path fill="#263238" d="M 118.425781 101.816406 C 118.425781 101.816406 120.859375 131.109375 123.101562 140.558594 C 125.753906 151.777344 140.144531 169.5 140.144531 169.5 L 144.578125 167.242188 C 144.578125 167.242188 134.828125 147.550781 132.714844 141.617188 C 128.203125 128.957031 132.992188 110.449219 129.328125 102.160156 Z M 118.425781 101.816406 " fill-opacity="1" fill-rule="nonzero"/><path fill="#cc004d" d="M 145.207031 167.214844 L 139.707031 170.015625 L 138.242188 168.585938 L 144.566406 165 Z M 145.207031 167.214844 " fill-opacity="1" fill-rule="nonzero"/><path fill="#cc004d" d="M 141.71875 174.285156 C 141.71875 174.285156 141.691406 174.285156 141.675781 174.285156 C 141.511719 174.265625 141.386719 174.164062 141.292969 173.992188 C 141.226562 173.863281 141.257812 173.757812 141.292969 173.699219 C 141.527344 173.296875 142.84375 173.234375 142.996094 173.226562 C 143.035156 173.226562 143.0625 173.246094 143.078125 173.273438 C 143.089844 173.308594 143.085938 173.339844 143.0625 173.367188 C 142.753906 173.722656 142.175781 174.300781 141.722656 174.289062 Z M 142.792969 173.40625 C 142.265625 173.445312 141.566406 173.570312 141.441406 173.777344 C 141.429688 173.808594 141.414062 173.84375 141.445312 173.90625 C 141.507812 174.027344 141.589844 174.09375 141.699219 174.105469 C 141.949219 174.136719 142.347656 173.878906 142.792969 173.40625 Z M 142.792969 173.40625 " fill-opacity="1" fill-rule="nonzero"/><path fill="#cc004d" d="M 142.871094 173.398438 C 142.417969 173.382812 141.59375 173.140625 141.441406 172.796875 C 141.410156 172.726562 141.378906 172.578125 141.539062 172.429688 C 141.636719 172.335938 141.761719 172.296875 141.898438 172.3125 C 142.429688 172.367188 143.039062 173.214844 143.066406 173.253906 C 143.085938 173.277344 143.085938 173.3125 143.078125 173.339844 C 143.0625 173.367188 143.039062 173.386719 143.007812 173.390625 C 142.96875 173.390625 142.917969 173.398438 142.871094 173.390625 Z M 141.855469 172.480469 C 141.78125 172.480469 141.714844 172.507812 141.652344 172.558594 C 141.570312 172.636719 141.578125 172.6875 141.59375 172.726562 C 141.699219 172.957031 142.382812 173.195312 142.824219 173.222656 C 142.605469 172.949219 142.195312 172.515625 141.878906 172.480469 C 141.871094 172.480469 141.859375 172.480469 141.851562 172.480469 Z M 141.855469 172.480469 " fill-opacity="1" fill-rule="nonzero"/><path fill="#cc004d" d="M 110.867188 183.394531 C 110.503906 183.355469 110.179688 183.265625 110.007812 183.082031 C 109.898438 182.960938 109.863281 182.8125 109.898438 182.648438 C 109.917969 182.546875 109.972656 182.46875 110.070312 182.433594 C 110.542969 182.238281 111.910156 183.125 112.0625 183.226562 C 112.089844 183.246094 112.105469 183.285156 112.101562 183.324219 C 112.089844 183.355469 112.0625 183.386719 112.023438 183.390625 C 111.710938 183.417969 111.265625 183.441406 110.871094 183.398438 Z M 110.292969 182.574219 C 110.226562 182.570312 110.171875 182.574219 110.132812 182.589844 C 110.09375 182.605469 110.074219 182.632812 110.066406 182.675781 C 110.039062 182.789062 110.066406 182.886719 110.136719 182.960938 C 110.335938 183.179688 110.929688 183.28125 111.75 183.226562 C 111.277344 182.9375 110.640625 182.609375 110.296875 182.574219 Z M 110.292969 182.574219 " fill-opacity="1" fill-rule="nonzero"/><path fill="#cc004d" d="M 112 183.378906 C 112 183.378906 111.976562 183.375 111.96875 183.371094 C 111.558594 183.132812 110.78125 182.261719 110.890625 181.855469 C 110.914062 181.761719 111 181.644531 111.238281 181.644531 C 111.414062 181.644531 111.570312 181.710938 111.699219 181.847656 C 112.113281 182.273438 112.101562 183.257812 112.097656 183.300781 C 112.097656 183.328125 112.078125 183.355469 112.054688 183.371094 C 112.039062 183.378906 112.019531 183.386719 112 183.378906 Z M 111.289062 181.824219 C 111.289062 181.824219 111.257812 181.824219 111.238281 181.824219 C 111.082031 181.824219 111.0625 181.882812 111.054688 181.902344 C 110.988281 182.144531 111.503906 182.824219 111.921875 183.132812 C 111.90625 182.84375 111.847656 182.246094 111.578125 181.964844 C 111.496094 181.878906 111.398438 181.832031 111.289062 181.824219 Z M 111.289062 181.824219 " fill-opacity="1" fill-rule="nonzero"/><path fill="#ffa79e" d="M 112.953125 86.8125 C 111.578125 88.632812 110.132812 90.257812 108.433594 91.816406 C 107.585938 92.59375 106.683594 93.335938 105.582031 93.992188 C 105.03125 94.316406 104.425781 94.636719 103.652344 94.851562 C 103.265625 94.957031 102.828125 95.035156 102.320312 95.03125 C 102.074219 95.03125 101.800781 95 101.53125 94.941406 C 101.390625 94.90625 101.253906 94.871094 101.121094 94.820312 C 100.976562 94.765625 100.878906 94.730469 100.667969 94.617188 C 100.300781 94.417969 100 94.136719 99.804688 93.878906 C 99.605469 93.621094 99.464844 93.363281 99.371094 93.140625 C 99.175781 92.683594 99.097656 92.296875 99.042969 91.9375 C 98.941406 91.222656 98.945312 90.609375 98.96875 90.007812 C 99.027344 88.816406 99.21875 87.710938 99.429688 86.617188 C 99.867188 84.4375 100.476562 82.359375 101.21875 80.292969 L 103.195312 80.800781 C 102.910156 82.875 102.652344 84.992188 102.492188 87.039062 C 102.414062 88.066406 102.375 89.085938 102.417969 90.027344 C 102.4375 90.496094 102.488281 90.949219 102.574219 91.289062 C 102.617188 91.457031 102.671875 91.597656 102.699219 91.625 C 102.722656 91.671875 102.703125 91.523438 102.417969 91.34375 C 102.320312 91.296875 102.351562 91.304688 102.332031 91.296875 C 102.320312 91.289062 102.3125 91.285156 102.308594 91.28125 C 102.296875 91.273438 102.292969 91.273438 102.308594 91.261719 C 102.335938 91.253906 102.425781 91.234375 102.554688 91.1875 C 102.804688 91.089844 103.15625 90.90625 103.503906 90.667969 C 104.210938 90.1875 104.945312 89.539062 105.65625 88.855469 C 106.363281 88.167969 107.046875 87.417969 107.722656 86.65625 C 108.402344 85.902344 109.070312 85.082031 109.679688 84.328125 L 112.957031 86.816406 Z M 112.953125 86.8125 " fill-opacity="1" fill-rule="nonzero"/><path fill="#cc004d" d="M 112.15625 81.570312 C 110.660156 81.160156 106.230469 86.8125 106.230469 86.8125 L 110.464844 91.535156 C 110.464844 91.535156 115.433594 87.054688 115.242188 85.046875 C 115.046875 82.957031 114.335938 82.175781 112.152344 81.574219 Z M 112.15625 81.570312 " fill-opacity="1" fill-rule="nonzero"/><path fill="#ffa79e" d="M 103.242188 80.273438 L 103.074219 77.304688 L 100.210938 79.664062 C 100.210938 79.664062 100.644531 81.964844 102.089844 82.421875 L 102.980469 81.167969 C 103.167969 80.90625 103.257812 80.59375 103.238281 80.277344 Z M 103.242188 80.273438 " fill-opacity="1" fill-rule="nonzero"/><path fill="#ffa79e" d="M 101.210938 74.863281 L 98.921875 76.964844 L 100.210938 79.660156 L 103.074219 77.300781 Z M 101.210938 74.863281 " fill-opacity="1" fill-rule="nonzero"/><path fill="#263238" d="M 100.046875 80.605469 L 99.390625 80.367188 C 99.019531 80.234375 98.796875 79.847656 98.871094 79.457031 L 99.875 74.113281 L 101.683594 74.769531 L 101.128906 79.933594 C 101.074219 80.453125 100.542969 80.789062 100.050781 80.605469 Z M 100.046875 80.605469 " fill-opacity="1" fill-rule="nonzero"/><path fill="#263238" d="M 104.8125 73.8125 C 104.925781 73.503906 105.03125 73.199219 105.136719 72.890625 C 104.851562 72.363281 104.289062 71.796875 103.539062 71.253906 C 103.300781 71.839844 103.0625 72.453125 102.828125 73.085938 C 102.59375 73.722656 102.382812 74.34375 102.1875 74.949219 C 103.113281 75.015625 103.910156 74.945312 104.46875 74.722656 C 104.582031 74.421875 104.695312 74.121094 104.8125 73.8125 Z M 104.8125 73.8125 " fill-opacity="1" fill-rule="nonzero"/><path fill="#cc004d" d="M 103.613281 73.378906 C 103.929688 72.511719 104.136719 71.695312 104.21875 71.082031 L 98.292969 68.921875 L 96.683594 73.347656 L 102.613281 75.507812 C 102.941406 74.984375 103.304688 74.234375 103.617188 73.378906 Z M 103.613281 73.378906 " fill-opacity="1" fill-rule="nonzero"/><path fill="#ffffff" d="M 103.613281 73.378906 C 103.929688 72.511719 104.136719 71.695312 104.21875 71.082031 L 98.292969 68.921875 L 96.683594 73.347656 L 102.613281 75.507812 C 102.941406 74.984375 103.304688 74.234375 103.617188 73.378906 Z M 103.613281 73.378906 " fill-opacity="0.6" fill-rule="nonzero"/><path fill="#cc004d" d="M 99.832031 69.074219 C 99.5625 68.976562 93.171875 62.390625 92.441406 62.121094 C 91.667969 61.835938 89.996094 64.453125 88.71875 67.960938 C 87.441406 71.46875 87.035156 74.535156 87.820312 74.820312 C 88.550781 75.089844 97.679688 74.148438 97.949219 74.25 C 98.269531 74.363281 98.945312 73.300781 99.464844 71.871094 C 99.984375 70.441406 100.152344 69.195312 99.832031 69.074219 Z M 99.832031 69.074219 " fill-opacity="1" fill-rule="nonzero"/><path fill="#ffffff" d="M 99.832031 69.074219 C 99.5625 68.976562 93.171875 62.390625 92.441406 62.121094 C 91.667969 61.835938 89.996094 64.453125 88.71875 67.960938 C 87.441406 71.46875 87.035156 74.535156 87.820312 74.820312 C 88.550781 75.089844 97.679688 74.148438 97.949219 74.25 C 98.269531 74.363281 98.945312 73.300781 99.464844 71.871094 C 99.984375 70.441406 100.152344 69.195312 99.832031 69.074219 Z M 99.832031 69.074219 " fill-opacity="0.4" fill-rule="nonzero"/><path fill="#cc004d" d="M 91.542969 68.984375 C 90.265625 72.492188 88.59375 75.101562 87.816406 74.824219 C 87.042969 74.539062 87.441406 71.46875 88.71875 67.960938 C 89.996094 64.453125 91.664062 61.839844 92.441406 62.121094 C 93.21875 62.410156 92.820312 65.476562 91.542969 68.984375 Z M 91.542969 68.984375 " fill-opacity="1" fill-rule="nonzero"/><path fill="#263238" d="M 89.660156 68.296875 C 89.574219 68.53125 89.492188 68.761719 89.414062 68.988281 C 89.710938 69.417969 90.269531 69.890625 91.003906 70.363281 C 91.1875 69.921875 91.371094 69.464844 91.542969 68.984375 C 91.714844 68.507812 91.871094 68.042969 92.015625 67.582031 C 91.152344 67.472656 90.417969 67.480469 89.917969 67.617188 C 89.832031 67.839844 89.738281 68.070312 89.660156 68.296875 Z M 89.660156 68.296875 " fill-opacity="1" fill-rule="nonzero"/><path fill="#ffffff" d="M 89.660156 68.296875 C 89.574219 68.53125 89.492188 68.761719 89.414062 68.988281 C 89.710938 69.417969 90.269531 69.890625 91.003906 70.363281 C 91.1875 69.921875 91.371094 69.464844 91.542969 68.984375 C 91.714844 68.507812 91.871094 68.042969 92.015625 67.582031 C 91.152344 67.472656 90.417969 67.480469 89.917969 67.617188 C 89.832031 67.839844 89.738281 68.070312 89.660156 68.296875 Z M 89.660156 68.296875 " fill-opacity="0.7" fill-rule="nonzero"/><path fill="#000000" d="M 110.910156 84.890625 C 111.128906 88.058594 110.382812 89.949219 109.863281 90.859375 L 110.464844 91.527344 C 110.464844 91.527344 113.269531 89.003906 114.578125 86.898438 C 113.101562 84.710938 110.675781 81.566406 110.902344 84.894531 Z M 110.910156 84.890625 " fill-opacity="0.2" fill-rule="nonzero"/><path fill="#263238" d="M 127.578125 66.867188 C 129.566406 66.867188 131.175781 65.257812 131.175781 63.269531 C 131.175781 61.285156 129.566406 59.671875 127.578125 59.671875 C 125.589844 59.671875 123.976562 61.285156 123.976562 63.269531 C 123.976562 65.257812 125.589844 66.867188 127.578125 66.867188 Z M 127.578125 66.867188 " fill-opacity="1" fill-rule="nonzero"/><path fill="#cc004d" d="M 127.191406 64.910156 C 127.191406 66.160156 126.179688 67.167969 124.929688 67.167969 C 123.683594 67.167969 122.671875 66.160156 122.671875 64.910156 C 122.671875 63.660156 123.683594 62.652344 124.929688 62.652344 C 126.179688 62.652344 127.191406 63.660156 127.191406 64.910156 Z M 127.191406 64.910156 " fill-opacity="1" fill-rule="nonzero"/><path fill="#263238" d="M 117.738281 62.101562 C 117.738281 62.101562 112.953125 61.710938 112.957031 69.910156 C 112.964844 75.523438 115.6875 78.121094 119.027344 76.234375 C 119.027344 76.234375 126.398438 75.628906 127.246094 68.882812 C 128.097656 62.140625 122.886719 59.628906 117.730469 62.097656 Z M 117.738281 62.101562 " fill-opacity="1" fill-rule="nonzero"/><path fill="#cc004d" d="M 111.1875 81.785156 C 111.1875 81.785156 109.496094 82.519531 114.523438 103.609375 C 120.386719 103.183594 126.445312 102.742188 129.304688 102.535156 C 128.617188 96.542969 128.339844 92.839844 130.320312 80.292969 C 130.320312 80.292969 127.171875 79.84375 123.980469 79.921875 C 121.488281 79.984375 119.441406 80.050781 117.273438 80.40625 C 114.410156 80.878906 111.191406 81.785156 111.191406 81.785156 Z M 111.1875 81.785156 " fill-opacity="1" fill-rule="nonzero"/><path fill="#ffa79e" d="M 122.761719 72.414062 C 122.496094 74.601562 122.359375 78.585938 123.976562 79.921875 C 123.976562 79.921875 123.546875 82.152344 119.535156 82.445312 C 115.125 82.765625 117.265625 80.410156 117.265625 80.410156 C 119.628906 79.664062 119.4375 77.882812 118.894531 76.234375 L 122.757812 72.414062 Z M 122.761719 72.414062 " fill-opacity="1" fill-rule="nonzero"/><path fill="#000000" d="M 121.1875 73.972656 L 118.898438 76.226562 C 119.027344 76.617188 119.136719 77.015625 119.195312 77.40625 C 120.105469 77.203125 121.296875 76.105469 121.320312 75.136719 C 121.335938 74.65625 121.285156 74.191406 121.1875 73.972656 Z M 121.1875 73.972656 " fill-opacity="0.2" fill-rule="nonzero"/><path fill="#ffa79e" d="M 125.230469 68.773438 C 124.40625 72.296875 124.128906 73.808594 122.019531 75.328125 C 118.84375 77.613281 114.695312 75.828125 114.453125 72.128906 C 114.230469 68.796875 115.621094 63.601562 119.351562 62.773438 C 123.027344 61.964844 126.0625 65.253906 125.238281 68.773438 Z M 125.230469 68.773438 " fill-opacity="1" fill-rule="nonzero"/><path fill="#263238" d="M 119.152344 68.75 C 119.105469 69.042969 118.910156 69.25 118.71875 69.21875 C 118.527344 69.183594 118.414062 68.921875 118.464844 68.636719 C 118.511719 68.347656 118.710938 68.136719 118.898438 68.167969 C 119.089844 68.203125 119.203125 68.464844 119.152344 68.75 Z M 119.152344 68.75 " fill-opacity="1" fill-rule="nonzero"/><path fill="#263238" d="M 115.878906 68.1875 C 115.828125 68.480469 115.632812 68.6875 115.441406 68.65625 C 115.253906 68.621094 115.136719 68.359375 115.191406 68.074219 C 115.238281 67.785156 115.433594 67.574219 115.625 67.609375 C 115.816406 67.640625 115.929688 67.902344 115.878906 68.1875 Z M 115.878906 68.1875 " fill-opacity="1" fill-rule="nonzero"/><path fill="#263238" d="M 115.707031 67.636719 L 115.042969 67.316406 C 115.042969 67.316406 115.304688 67.921875 115.707031 67.636719 Z M 115.707031 67.636719 " fill-opacity="1" fill-rule="nonzero"/><path fill="#a02724" d="M 117.03125 68.882812 C 117.03125 68.882812 116.324219 70.046875 115.679688 70.558594 C 116.003906 70.980469 116.683594 70.929688 116.683594 70.929688 Z M 117.03125 68.882812 " fill-opacity="1" fill-rule="nonzero"/><path fill="#ffa79e" d="M 125.640625 72.199219 C 125.269531 72.855469 124.628906 73.273438 124.035156 73.425781 C 123.132812 73.65625 122.703125 72.847656 122.972656 72.011719 C 123.210938 71.257812 123.96875 70.226562 124.863281 70.371094 C 125.746094 70.507812 126.070312 71.457031 125.640625 72.207031 Z M 125.640625 72.199219 " fill-opacity="1" fill-rule="nonzero"/><path fill="#263238" d="M 120.582031 68.308594 C 120.511719 68.308594 120.445312 68.261719 120.421875 68.183594 C 120.1875 67.421875 119.210938 67.09375 119.199219 67.09375 C 119.109375 67.0625 119.0625 66.964844 119.089844 66.875 C 119.117188 66.78125 119.21875 66.734375 119.308594 66.765625 C 119.355469 66.777344 120.46875 67.148438 120.753906 68.085938 C 120.785156 68.175781 120.730469 68.269531 120.640625 68.296875 C 120.621094 68.304688 120.601562 68.308594 120.585938 68.308594 Z M 120.582031 68.308594 " fill-opacity="1" fill-rule="nonzero"/><path fill="#263238" d="M 115.148438 66.507812 C 115.089844 66.507812 115.03125 66.472656 115 66.421875 C 114.953125 66.339844 114.980469 66.230469 115.0625 66.1875 C 115.890625 65.710938 116.605469 66.066406 116.636719 66.082031 C 116.722656 66.125 116.753906 66.230469 116.710938 66.316406 C 116.667969 66.402344 116.5625 66.433594 116.476562 66.390625 C 116.476562 66.390625 115.894531 66.109375 115.234375 66.488281 C 115.203125 66.5 115.175781 66.511719 115.144531 66.511719 Z M 115.148438 66.507812 " fill-opacity="1" fill-rule="nonzero"/><path fill="#263238" d="M 118.980469 68.199219 L 118.316406 67.878906 C 118.316406 67.878906 118.582031 68.484375 118.980469 68.199219 Z M 118.980469 68.199219 " fill-opacity="1" fill-rule="nonzero"/><path fill="#263238" d="M 116.96875 71.828125 C 116.96875 71.828125 117.925781 71.558594 120.648438 71.429688 C 120.367188 72.261719 119.804688 72.957031 118.414062 73.011719 C 117.015625 73.0625 116.96875 71.828125 116.96875 71.828125 Z M 116.96875 71.828125 " fill-opacity="1" fill-rule="nonzero"/><path fill="#a02724" d="M 119.027344 72.335938 C 118.355469 72.359375 117.875 72.539062 117.527344 72.800781 C 117.730469 72.933594 118.019531 73.019531 118.410156 73.007812 C 119.082031 72.984375 119.558594 72.804688 119.90625 72.539062 C 119.699219 72.40625 119.414062 72.320312 119.027344 72.335938 Z M 119.027344 72.335938 " fill-opacity="1" fill-rule="nonzero"/><path fill="#ffffff" d="M 117.09375 71.796875 C 117.179688 71.96875 117.265625 72.140625 117.539062 72.183594 C 118.109375 72.191406 119.554688 71.960938 119.9375 71.863281 C 120.1875 71.808594 120.398438 71.714844 120.535156 71.433594 C 118.4375 71.539062 117.421875 71.730469 117.09375 71.800781 Z M 117.09375 71.796875 " fill-opacity="1" fill-rule="nonzero"/><path fill="#263238" d="M 115.066406 66.1875 C 115.066406 66.1875 116.898438 65.445312 117.804688 64.046875 C 117.804688 64.046875 117.820312 66.582031 118.835938 66.386719 C 119.859375 66.191406 118.316406 64.042969 118.316406 64.042969 C 118.316406 64.042969 120.707031 65.101562 121.515625 67.167969 C 122.328125 69.242188 123.261719 71.492188 125.097656 70.933594 C 126.9375 70.371094 126.527344 64.511719 123.820312 63.046875 L 119.988281 62.359375 L 118.863281 62.523438 C 118.285156 62.609375 117.730469 62.808594 117.234375 63.113281 C 116.484375 63.574219 115.890625 64.261719 115.542969 65.070312 Z M 115.066406 66.1875 " fill-opacity="1" fill-rule="nonzero"/><path fill="#cc004d" d="M 123.96875 66.492188 C 123.792969 66.121094 122.949219 66.148438 122.082031 66.558594 C 121.210938 66.96875 121.179688 67.355469 121.355469 67.726562 C 121.53125 68.097656 121.851562 68.316406 122.71875 67.90625 C 123.585938 67.496094 124.144531 66.863281 123.96875 66.492188 Z M 121.921875 67.460938 C 121.796875 67.191406 121.824219 66.917969 122.441406 66.625 C 123.0625 66.335938 123.667969 66.3125 123.792969 66.578125 C 123.914062 66.84375 123.515625 67.296875 122.898438 67.589844 C 122.28125 67.878906 122.050781 67.726562 121.925781 67.460938 Z M 121.921875 67.460938 " fill-opacity="1" fill-rule="nonzero"/><path fill="#000000" d="M 128.683594 85.183594 L 127.5625 84.21875 L 126.734375 84.589844 C 126.734375 84.589844 126.0625 88.710938 128.84375 92.90625 C 128.917969 91.320312 129.070312 89.53125 129.316406 87.398438 C 128.96875 86.121094 128.683594 85.183594 128.683594 85.183594 Z M 128.683594 85.183594 " fill-opacity="0.2" fill-rule="nonzero"/><path fill="#263238" d="M 143.789062 96.796875 L 143.183594 96.855469 L 142.894531 94.125 C 142.699219 92.269531 144.046875 90.515625 145.890625 90.222656 C 146.792969 90.082031 147.671875 90.300781 148.378906 90.84375 C 149.085938 91.386719 149.527344 92.1875 149.625 93.09375 L 149.910156 95.824219 L 149.304688 95.886719 L 149.019531 93.152344 C 148.941406 92.410156 148.578125 91.761719 148.007812 91.320312 C 147.433594 90.882812 146.714844 90.699219 145.980469 90.820312 C 144.449219 91.0625 143.335938 92.515625 143.496094 94.058594 L 143.78125 96.789062 Z M 143.789062 96.796875 " fill-opacity="1" fill-rule="nonzero"/><path fill="#ffa79e" d="M 132.550781 84.546875 C 132.632812 84.957031 132.75 85.464844 132.855469 85.929688 C 132.96875 86.402344 133.09375 86.878906 133.226562 87.34375 C 133.492188 88.285156 133.773438 89.21875 134.113281 90.117188 C 134.789062 91.914062 135.609375 93.644531 136.683594 95.027344 L 136.785156 95.15625 L 136.835938 95.222656 C 136.835938 95.222656 136.796875 95.183594 136.777344 95.164062 C 136.699219 95.089844 136.582031 95.042969 136.515625 95.015625 C 136.375 94.972656 136.378906 95.015625 136.46875 95.015625 C 136.660156 95.03125 137.066406 94.945312 137.457031 94.808594 C 138.261719 94.527344 139.152344 94.101562 140.011719 93.628906 C 141.742188 92.6875 143.492188 91.589844 145.183594 90.484375 L 146.5 92.039062 C 145.003906 93.578125 143.4375 94.980469 141.675781 96.261719 C 140.785156 96.890625 139.867188 97.511719 138.757812 98.015625 C 138.191406 98.261719 137.597656 98.511719 136.753906 98.613281 C 136.335938 98.660156 135.804688 98.667969 135.175781 98.445312 C 134.867188 98.332031 134.53125 98.136719 134.257812 97.890625 C 134.191406 97.828125 134.117188 97.761719 134.0625 97.699219 L 133.984375 97.617188 L 133.832031 97.453125 C 133.023438 96.566406 132.355469 95.605469 131.785156 94.621094 C 131.203125 93.640625 130.734375 92.625 130.3125 91.597656 C 129.898438 90.566406 129.527344 89.53125 129.226562 88.480469 C 129.078125 87.949219 128.941406 87.421875 128.8125 86.886719 C 128.683594 86.34375 128.578125 85.839844 128.476562 85.230469 L 132.539062 84.546875 Z M 132.550781 84.546875 " fill-opacity="1" fill-rule="nonzero"/><path fill="#cc004d" d="M 130.3125 80.292969 C 131.824219 80.636719 134.476562 86.097656 134.476562 86.097656 L 128.53125 90.117188 C 128.53125 90.117188 126.128906 86.015625 126.609375 84.058594 C 127.113281 82.019531 128.585938 79.898438 130.3125 80.289062 Z M 130.3125 80.292969 " fill-opacity="1" fill-rule="nonzero"/><path fill="#ffa79e" d="M 144.941406 90.5 L 148.394531 88.597656 L 147.667969 92.234375 C 147.667969 92.234375 145.4375 92.941406 144.351562 91.886719 L 144.941406 90.503906 Z M 144.941406 90.5 " fill-opacity="1" fill-rule="nonzero"/><path fill="#ffa79e" d="M 151.421875 89.085938 L 150.648438 92.097656 L 147.667969 92.234375 L 148.394531 88.597656 Z M 151.421875 89.085938 " fill-opacity="1" fill-rule="nonzero"/><path fill="#263238" d="M 152.871094 95.355469 L 152.296875 92.667969 C 151.972656 91.148438 150.46875 90.109375 148.9375 90.351562 C 148.203125 90.464844 147.574219 90.863281 147.164062 91.453125 C 146.753906 92.046875 146.613281 92.777344 146.765625 93.507812 L 147.339844 96.195312 L 146.742188 96.324219 L 146.171875 93.636719 C 145.980469 92.738281 146.15625 91.84375 146.65625 91.109375 C 147.164062 90.375 147.9375 89.894531 148.835938 89.75 C 150.683594 89.460938 152.5 90.710938 152.890625 92.539062 L 153.460938 95.226562 L 152.867188 95.355469 Z M 152.871094 95.355469 " fill-opacity="1" fill-rule="nonzero"/><path fill="#ffffff" d="M 152.871094 95.355469 L 152.296875 92.667969 C 151.972656 91.148438 150.46875 90.109375 148.9375 90.351562 C 148.203125 90.464844 147.574219 90.863281 147.164062 91.453125 C 146.753906 92.046875 146.613281 92.777344 146.765625 93.507812 L 147.339844 96.195312 L 146.742188 96.324219 L 146.171875 93.636719 C 145.980469 92.738281 146.15625 91.84375 146.65625 91.109375 C 147.164062 90.375 147.9375 89.894531 148.835938 89.75 C 150.683594 89.460938 152.5 90.710938 152.890625 92.539062 L 153.460938 95.226562 L 152.867188 95.355469 Z M 152.871094 95.355469 " fill-opacity="0.3" fill-rule="nonzero"/><path fill="#cc004d" d="M 156.425781 93.558594 L 138.742188 96.355469 L 141.464844 117.417969 L 143.992188 116.402344 L 146.710938 116.585938 L 160.347656 114.425781 Z M 156.425781 93.558594 " fill-opacity="1" fill-rule="nonzero"/><path fill="#ffffff" d="M 156.425781 93.558594 L 138.742188 96.355469 L 141.464844 117.417969 L 143.992188 116.402344 L 146.710938 116.585938 L 160.347656 114.425781 Z M 156.425781 93.558594 " fill-opacity="0.6" fill-rule="nonzero"/><path fill="#cc004d" d="M 146.710938 116.585938 L 143.992188 116.402344 L 141.464844 117.417969 L 138.742188 96.355469 L 142.792969 95.71875 Z M 146.710938 116.585938 " fill-opacity="1" fill-rule="nonzero"/><path fill="#ffffff" d="M 146.710938 116.585938 L 143.992188 116.402344 L 141.464844 117.417969 L 138.742188 96.355469 L 142.792969 95.71875 Z M 146.710938 116.585938 " fill-opacity="0.3" fill-rule="nonzero"/><path fill="#ffffff" d="M 154.691406 102.636719 L 147.378906 103.792969 C 146.984375 103.855469 146.71875 104.222656 146.78125 104.617188 L 146.789062 104.683594 C 146.851562 105.074219 147.222656 105.34375 147.613281 105.28125 L 154.925781 104.121094 C 155.320312 104.058594 155.589844 103.691406 155.527344 103.300781 L 155.515625 103.234375 C 155.453125 102.839844 155.085938 102.574219 154.691406 102.636719 Z M 154.691406 102.636719 " fill-opacity="1" fill-rule="nonzero"/></svg>