<svg xmlns="http://www.w3.org/2000/svg" xmlns:xlink="http://www.w3.org/1999/xlink" width="500" zoomAndPan="magnify" viewBox="0 0 375 374.999991" height="500" preserveAspectRatio="xMidYMid meet" version="1.0"><defs><g/></defs><rect x="-37.5" width="450" fill="#ffffff" y="-37.499999" height="449.999989" fill-opacity="1"/><rect x="-37.5" width="450" fill="#d9d9d9" y="-37.499999" height="449.999989" fill-opacity="1"/><g fill="#a6a6a6" fill-opacity="1"><g transform="translate(87.832031, 202.499987)"><g><path d="M 11.890625 0.40625 C 9.046875 0.40625 6.785156 -0.191406 5.109375 -1.390625 C 3.429688 -2.585938 2.34375 -4.257812 1.84375 -6.40625 L 6.109375 -8.296875 L 6.5625 -8.21875 C 6.976562 -6.957031 7.597656 -6.007812 8.421875 -5.375 C 9.253906 -4.738281 10.394531 -4.421875 11.84375 -4.421875 C 13.320312 -4.421875 14.460938 -4.84375 15.265625 -5.6875 C 16.078125 -6.53125 16.484375 -7.789062 16.484375 -9.46875 C 16.484375 -11.132812 16.082031 -12.394531 15.28125 -13.25 C 14.476562 -14.113281 13.390625 -14.546875 12.015625 -14.546875 C 10.960938 -14.546875 10.078125 -14.316406 9.359375 -13.859375 C 8.640625 -13.410156 8.039062 -12.738281 7.5625 -11.84375 L 2.890625 -12.171875 L 3.484375 -28.5625 L 20.46875 -28.5625 L 20.46875 -23.8125 L 8.21875 -23.8125 L 7.953125 -16.53125 L 8.359375 -16.453125 C 9.023438 -17.316406 9.816406 -17.972656 10.734375 -18.421875 C 11.660156 -18.878906 12.773438 -19.109375 14.078125 -19.109375 C 15.710938 -19.109375 17.132812 -18.742188 18.34375 -18.015625 C 19.5625 -17.296875 20.503906 -16.222656 21.171875 -14.796875 C 21.835938 -13.367188 22.171875 -11.628906 22.171875 -9.578125 C 22.171875 -7.472656 21.769531 -5.675781 20.96875 -4.1875 C 20.164062 -2.695312 18.992188 -1.554688 17.453125 -0.765625 C 15.921875 0.015625 14.066406 0.40625 11.890625 0.40625 Z M 11.890625 0.40625 "/></g></g></g><g fill="#a6a6a6" fill-opacity="1"><g transform="translate(111.892179, 202.499987)"><g><path d="M 13.953125 0.40625 C 11.617188 0.40625 9.585938 -0.109375 7.859375 -1.140625 C 6.140625 -2.179688 4.800781 -3.796875 3.84375 -5.984375 C 2.882812 -8.171875 2.40625 -10.9375 2.40625 -14.28125 C 2.40625 -17.625 2.882812 -20.390625 3.84375 -22.578125 C 4.800781 -24.765625 6.140625 -26.375 7.859375 -27.40625 C 9.585938 -28.445312 11.617188 -28.96875 13.953125 -28.96875 C 16.296875 -28.96875 18.328125 -28.445312 20.046875 -27.40625 C 21.773438 -26.375 23.117188 -24.765625 24.078125 -22.578125 C 25.035156 -20.390625 25.515625 -17.625 25.515625 -14.28125 C 25.515625 -10.9375 25.035156 -8.171875 24.078125 -5.984375 C 23.117188 -3.796875 21.773438 -2.179688 20.046875 -1.140625 C 18.328125 -0.109375 16.296875 0.40625 13.953125 0.40625 Z M 13.953125 -4.375 C 15.222656 -4.375 16.285156 -4.679688 17.140625 -5.296875 C 18.003906 -5.921875 18.664062 -6.960938 19.125 -8.421875 C 19.59375 -9.878906 19.828125 -11.832031 19.828125 -14.28125 C 19.828125 -16.726562 19.59375 -18.679688 19.125 -20.140625 C 18.664062 -21.597656 18.003906 -22.632812 17.140625 -23.25 C 16.285156 -23.875 15.222656 -24.1875 13.953125 -24.1875 C 12.671875 -24.1875 11.597656 -23.875 10.734375 -23.25 C 9.878906 -22.632812 9.21875 -21.597656 8.75 -20.140625 C 8.289062 -18.679688 8.0625 -16.726562 8.0625 -14.28125 C 8.0625 -11.832031 8.289062 -9.878906 8.75 -8.421875 C 9.21875 -6.960938 9.878906 -5.921875 10.734375 -5.296875 C 11.597656 -4.679688 12.671875 -4.375 13.953125 -4.375 Z M 13.953125 -4.375 "/></g></g></g><g fill="#a6a6a6" fill-opacity="1"><g transform="translate(139.799614, 202.499987)"><g><path d="M 13.953125 0.40625 C 11.617188 0.40625 9.585938 -0.109375 7.859375 -1.140625 C 6.140625 -2.179688 4.800781 -3.796875 3.84375 -5.984375 C 2.882812 -8.171875 2.40625 -10.9375 2.40625 -14.28125 C 2.40625 -17.625 2.882812 -20.390625 3.84375 -22.578125 C 4.800781 -24.765625 6.140625 -26.375 7.859375 -27.40625 C 9.585938 -28.445312 11.617188 -28.96875 13.953125 -28.96875 C 16.296875 -28.96875 18.328125 -28.445312 20.046875 -27.40625 C 21.773438 -26.375 23.117188 -24.765625 24.078125 -22.578125 C 25.035156 -20.390625 25.515625 -17.625 25.515625 -14.28125 C 25.515625 -10.9375 25.035156 -8.171875 24.078125 -5.984375 C 23.117188 -3.796875 21.773438 -2.179688 20.046875 -1.140625 C 18.328125 -0.109375 16.296875 0.40625 13.953125 0.40625 Z M 13.953125 -4.375 C 15.222656 -4.375 16.285156 -4.679688 17.140625 -5.296875 C 18.003906 -5.921875 18.664062 -6.960938 19.125 -8.421875 C 19.59375 -9.878906 19.828125 -11.832031 19.828125 -14.28125 C 19.828125 -16.726562 19.59375 -18.679688 19.125 -20.140625 C 18.664062 -21.597656 18.003906 -22.632812 17.140625 -23.25 C 16.285156 -23.875 15.222656 -24.1875 13.953125 -24.1875 C 12.671875 -24.1875 11.597656 -23.875 10.734375 -23.25 C 9.878906 -22.632812 9.21875 -21.597656 8.75 -20.140625 C 8.289062 -18.679688 8.0625 -16.726562 8.0625 -14.28125 C 8.0625 -11.832031 8.289062 -9.878906 8.75 -8.421875 C 9.21875 -6.960938 9.878906 -5.921875 10.734375 -5.296875 C 11.597656 -4.679688 12.671875 -4.375 13.953125 -4.375 Z M 13.953125 -4.375 "/></g></g></g><g fill="#a6a6a6" fill-opacity="1"><g transform="translate(167.707048, 202.499987)"><g/></g></g><g fill="#a6a6a6" fill-opacity="1"><g transform="translate(177.139726, 202.499987)"><g><path d="M 6.078125 0 L 0.375 0 L 6.53125 -11.171875 L 0.703125 -21.546875 L 6.484375 -21.546875 L 10.21875 -14.453125 L 10.671875 -14.453125 L 14.421875 -21.546875 L 20.015625 -21.546875 L 14.375 -11.171875 L 20.359375 0 L 14.59375 0 L 10.53125 -7.875 L 10.078125 -7.875 Z M 6.078125 0 "/></g></g></g><g fill="#a6a6a6" fill-opacity="1"><g transform="translate(197.860363, 202.499987)"><g/></g></g><g fill="#a6a6a6" fill-opacity="1"><g transform="translate(207.29304, 202.499987)"><g><path d="M 11.890625 0.40625 C 9.046875 0.40625 6.785156 -0.191406 5.109375 -1.390625 C 3.429688 -2.585938 2.34375 -4.257812 1.84375 -6.40625 L 6.109375 -8.296875 L 6.5625 -8.21875 C 6.976562 -6.957031 7.597656 -6.007812 8.421875 -5.375 C 9.253906 -4.738281 10.394531 -4.421875 11.84375 -4.421875 C 13.320312 -4.421875 14.460938 -4.84375 15.265625 -5.6875 C 16.078125 -6.53125 16.484375 -7.789062 16.484375 -9.46875 C 16.484375 -11.132812 16.082031 -12.394531 15.28125 -13.25 C 14.476562 -14.113281 13.390625 -14.546875 12.015625 -14.546875 C 10.960938 -14.546875 10.078125 -14.316406 9.359375 -13.859375 C 8.640625 -13.410156 8.039062 -12.738281 7.5625 -11.84375 L 2.890625 -12.171875 L 3.484375 -28.5625 L 20.46875 -28.5625 L 20.46875 -23.8125 L 8.21875 -23.8125 L 7.953125 -16.53125 L 8.359375 -16.453125 C 9.023438 -17.316406 9.816406 -17.972656 10.734375 -18.421875 C 11.660156 -18.878906 12.773438 -19.109375 14.078125 -19.109375 C 15.710938 -19.109375 17.132812 -18.742188 18.34375 -18.015625 C 19.5625 -17.296875 20.503906 -16.222656 21.171875 -14.796875 C 21.835938 -13.367188 22.171875 -11.628906 22.171875 -9.578125 C 22.171875 -7.472656 21.769531 -5.675781 20.96875 -4.1875 C 20.164062 -2.695312 18.992188 -1.554688 17.453125 -0.765625 C 15.921875 0.015625 14.066406 0.40625 11.890625 0.40625 Z M 11.890625 0.40625 "/></g></g></g><g fill="#a6a6a6" fill-opacity="1"><g transform="translate(231.353189, 202.499987)"><g><path d="M 13.953125 0.40625 C 11.617188 0.40625 9.585938 -0.109375 7.859375 -1.140625 C 6.140625 -2.179688 4.800781 -3.796875 3.84375 -5.984375 C 2.882812 -8.171875 2.40625 -10.9375 2.40625 -14.28125 C 2.40625 -17.625 2.882812 -20.390625 3.84375 -22.578125 C 4.800781 -24.765625 6.140625 -26.375 7.859375 -27.40625 C 9.585938 -28.445312 11.617188 -28.96875 13.953125 -28.96875 C 16.296875 -28.96875 18.328125 -28.445312 20.046875 -27.40625 C 21.773438 -26.375 23.117188 -24.765625 24.078125 -22.578125 C 25.035156 -20.390625 25.515625 -17.625 25.515625 -14.28125 C 25.515625 -10.9375 25.035156 -8.171875 24.078125 -5.984375 C 23.117188 -3.796875 21.773438 -2.179688 20.046875 -1.140625 C 18.328125 -0.109375 16.296875 0.40625 13.953125 0.40625 Z M 13.953125 -4.375 C 15.222656 -4.375 16.285156 -4.679688 17.140625 -5.296875 C 18.003906 -5.921875 18.664062 -6.960938 19.125 -8.421875 C 19.59375 -9.878906 19.828125 -11.832031 19.828125 -14.28125 C 19.828125 -16.726562 19.59375 -18.679688 19.125 -20.140625 C 18.664062 -21.597656 18.003906 -22.632812 17.140625 -23.25 C 16.285156 -23.875 15.222656 -24.1875 13.953125 -24.1875 C 12.671875 -24.1875 11.597656 -23.875 10.734375 -23.25 C 9.878906 -22.632812 9.21875 -21.597656 8.75 -20.140625 C 8.289062 -18.679688 8.0625 -16.726562 8.0625 -14.28125 C 8.0625 -11.832031 8.289062 -9.878906 8.75 -8.421875 C 9.21875 -6.960938 9.878906 -5.921875 10.734375 -5.296875 C 11.597656 -4.679688 12.671875 -4.375 13.953125 -4.375 Z M 13.953125 -4.375 "/></g></g></g><g fill="#a6a6a6" fill-opacity="1"><g transform="translate(259.260623, 202.499987)"><g><path d="M 13.953125 0.40625 C 11.617188 0.40625 9.585938 -0.109375 7.859375 -1.140625 C 6.140625 -2.179688 4.800781 -3.796875 3.84375 -5.984375 C 2.882812 -8.171875 2.40625 -10.9375 2.40625 -14.28125 C 2.40625 -17.625 2.882812 -20.390625 3.84375 -22.578125 C 4.800781 -24.765625 6.140625 -26.375 7.859375 -27.40625 C 9.585938 -28.445312 11.617188 -28.96875 13.953125 -28.96875 C 16.296875 -28.96875 18.328125 -28.445312 20.046875 -27.40625 C 21.773438 -26.375 23.117188 -24.765625 24.078125 -22.578125 C 25.035156 -20.390625 25.515625 -17.625 25.515625 -14.28125 C 25.515625 -10.9375 25.035156 -8.171875 24.078125 -5.984375 C 23.117188 -3.796875 21.773438 -2.179688 20.046875 -1.140625 C 18.328125 -0.109375 16.296875 0.40625 13.953125 0.40625 Z M 13.953125 -4.375 C 15.222656 -4.375 16.285156 -4.679688 17.140625 -5.296875 C 18.003906 -5.921875 18.664062 -6.960938 19.125 -8.421875 C 19.59375 -9.878906 19.828125 -11.832031 19.828125 -14.28125 C 19.828125 -16.726562 19.59375 -18.679688 19.125 -20.140625 C 18.664062 -21.597656 18.003906 -22.632812 17.140625 -23.25 C 16.285156 -23.875 15.222656 -24.1875 13.953125 -24.1875 C 12.671875 -24.1875 11.597656 -23.875 10.734375 -23.25 C 9.878906 -22.632812 9.21875 -21.597656 8.75 -20.140625 C 8.289062 -18.679688 8.0625 -16.726562 8.0625 -14.28125 C 8.0625 -11.832031 8.289062 -9.878906 8.75 -8.421875 C 9.21875 -6.960938 9.878906 -5.921875 10.734375 -5.296875 C 11.597656 -4.679688 12.671875 -4.375 13.953125 -4.375 Z M 13.953125 -4.375 "/></g></g></g></svg>