<?xml version="1.0" encoding="UTF-8" standalone="no"?>
<!-- Created with Inkscape (http://www.inkscape.org/) -->

<svg
   width="300"
   height="200"
   viewBox="0 0 79.375 52.916666"
   version="1.1"
   id="svg1"
   xml:space="preserve"
   sodipodi:docname="Nearby.svg"
   inkscape:version="1.3.2 (091e20e, 2023-11-25, custom)"
   inkscape:export-filename="Nearby.png"
   inkscape:export-xdpi="96"
   inkscape:export-ydpi="96"
   xmlns:inkscape="http://www.inkscape.org/namespaces/inkscape"
   xmlns:sodipodi="http://sodipodi.sourceforge.net/DTD/sodipodi-0.dtd"
   xmlns="http://www.w3.org/2000/svg"
   xmlns:svg="http://www.w3.org/2000/svg"><sodipodi:namedview
     id="namedview1"
     pagecolor="#ffffff"
     bordercolor="#000000"
     borderopacity="0.25"
     inkscape:showpageshadow="2"
     inkscape:pageopacity="0.0"
     inkscape:pagecheckerboard="0"
     inkscape:deskcolor="#d1d1d1"
     showguides="true"
     inkscape:zoom="1.3977144"
     inkscape:cx="61.529022"
     inkscape:cy="24.683154"
     inkscape:window-width="2400"
     inkscape:window-height="1271"
     inkscape:window-x="-9"
     inkscape:window-y="-9"
     inkscape:window-maximized="1"
     inkscape:current-layer="svg1"><sodipodi:guide
       position="7.49594,11.42836"
       orientation="0,-1"
       id="guide1"
       inkscape:locked="false" /><sodipodi:guide
       position="7.49594,5.0293083"
       orientation="0,-1"
       id="guide2"
       inkscape:locked="false" /><sodipodi:guide
       position="46.18925,26.981931"
       orientation="0,-1"
       id="guide3"
       inkscape:locked="false" /><sodipodi:guide
       position="50.52376,42.154726"
       orientation="0,-1"
       id="guide4"
       inkscape:locked="false" /></sodipodi:namedview><defs
     id="defs1" /><rect
     style="fill:#ff0060;fill-opacity:1;stroke-width:0.0515193;stroke-linecap:round;stroke-linejoin:round"
     id="rect2-9"
     width="79.375"
     height="52.916668"
     x="3.0371093e-06"
     y="-7.312012e-08" /><path
     d="m 26.964591,47.620808 h -0.66231 L 23.407739,44.71809 v 2.902718 h -1.610804 v -6.132503 h 0.654134 l 2.902718,2.894541 v -2.894541 h 1.610804 z m 1.234685,0 v -6.132503 h 3.810328 v 1.332797 H 29.81008 v 0.997554 h 1.946047 v 1.357327 H 29.81008 v 1.128381 h 2.199524 v 1.316444 z m 6.165211,0 h -1.610804 l 2.861835,-6.132503 h 0.727724 l 2.886364,6.132503 h -1.610804 l -0.376127,-0.801314 h -2.510237 z m 1.627158,-3.507792 -0.629604,1.349151 h 1.251031 z m 9.468593,3.507792 H 43.604134 L 42.65564,45.99365 h -0.997553 v 1.627158 h -1.610804 v -6.132503 h 2.583827 q 0.932141,0 1.594451,0.66231 0.66231,0.662311 0.66231,1.594451 0,0.9812 -0.727723,1.651687 z m -3.802151,-4.775176 v 1.757984 h 0.997553 q 0.36795,0 0.621427,-0.253476 0.261654,-0.253477 0.261654,-0.621427 0,-0.36795 -0.261654,-0.621427 -0.253477,-0.261654 -0.621427,-0.261654 z m 6.206098,3.450555 h 1.079321 q 0.22077,0 0.376126,-0.155357 0.155357,-0.155356 0.155357,-0.376126 0,-0.220771 -0.163533,-0.376127 -0.155357,-0.155357 -0.36795,-0.155357 h -1.079321 z m 0,-2.412118 h 0.776784 q 0.22077,0 0.376127,-0.155356 0.155356,-0.155357 0.155356,-0.376127 0,-0.22077 -0.155356,-0.376127 -0.155357,-0.155357 -0.376127,-0.155357 h -0.776784 z m 1.414564,3.736739 h -3.025368 v -6.132503 h 2.706478 q 0.7359,0 1.27556,0.547837 0.539661,0.53966 0.539661,1.275561 0,0.605073 -0.39248,1.10385 0.31889,0.253477 0.506953,0.629604 0.188063,0.36795 0.188063,0.776783 0,0.727724 -0.53966,1.267384 -0.531483,0.531484 -1.259207,0.531484 z m 8.299321,-6.132503 -2.240407,3.875742 v 2.256761 h -1.594451 v -2.256761 l -2.240408,-3.875742 h 1.856104 l 1.177441,2.044168 1.185617,-2.044168 z"
     id="text1"
     style="font-size:8.17667px;font-family:'Big John 2';-inkscape-font-specification:'Big John 2, Normal';fill:#ffffff;stroke-width:0.00292416;stroke-linecap:round;stroke-linejoin:round"
     aria-label="Nearby" /><path
     style="fill:#ffffff;stroke-width:0.361586"
     d="m 38.900298,25.514782 c -1.007345,-1.144402 -3.251577,-4.501735 -3.981306,-5.955968 -1.089486,-2.171171 -1.200052,-3.877612 -0.365077,-5.634769 1.456666,-3.065493 5.514784,-4.1248783 8.362825,-2.183144 0.825566,0.562852 1.423603,1.242137 1.841446,2.091614 1.313566,2.670499 0.616236,4.965329 -3.067011,10.093156 -0.434649,0.605111 -0.970816,1.304696 -1.191486,1.554633 -0.362349,0.410388 -0.44138,0.454431 -0.815482,0.454431 -0.369503,0 -0.45419,-0.04537 -0.783909,-0.419953 z m 1.550081,-7.316378 c 0.50904,-0.23125 0.941354,-0.740006 1.09493,-1.288555 0.314643,-1.123797 -0.658574,-2.35561 -1.861102,-2.35561 -1.179426,0 -2.141311,1.204973 -1.858491,2.328161 0.292047,1.15984 1.564272,1.797731 2.624663,1.316004 z"
     id="path4" /></svg>
