<svg width="24" height="24" viewBox="0 0 24 24" fill="none" xmlns="http://www.w3.org/2000/svg">
<path fill-rule="evenodd" clip-rule="evenodd" d="M22.0064 8.38621C22.004 8.5816 21.9244 8.76811 21.785 8.90505C21.6456 9.04198 21.4577 9.11822 21.2623 9.11713L16.3003 9.1166C16.1047 9.11791 15.9166 9.04175 15.777 8.90476C15.6374 8.76776 15.5577 8.58108 15.5554 8.38552C15.5554 7.98152 15.8895 7.65355 16.3005 7.6536L21.2625 7.65413C21.6725 7.65417 22.0064 7.98221 22.0064 8.38621ZM22.0059 12.7752C22.0035 12.9706 21.924 13.1571 21.7846 13.294C21.6452 13.431 21.4572 13.5072 21.2618 13.5061L17.2918 13.5057C17.0964 13.5068 16.9086 13.4305 16.7692 13.2935C16.6298 13.1565 16.5503 12.97 16.5479 12.7746C16.548 12.3706 16.881 12.0427 17.292 12.0427L21.262 12.0431C21.672 12.0432 22.006 12.3712 22.0059 12.7752Z" fill="#FF0060"/>
<path d="M12.5934 8.24618L12.9574 8.60322C14.4752 10.0954 15.2351 10.8425 15.234 11.6505C15.234 11.9155 15.179 12.1765 15.073 12.4194C14.7479 13.1624 13.7498 13.5523 11.7548 14.3331L11.6098 14.3891C11.0447 14.61 10.7617 14.721 10.5337 14.899C10.3618 15.0338 10.2131 15.196 10.0936 15.3789C9.93662 15.6189 9.85359 15.9079 9.68653 16.4829C9.42843 17.3758 9.30038 17.8228 9.02536 18.0198C8.8201 18.1678 8.56638 18.2324 8.31534 18.2007C7.97735 18.1607 7.64338 17.8317 6.97545 17.1756L5.94956 16.1655L3.27628 18.7932C3.13544 18.9305 2.94649 19.0074 2.74976 19.0074C2.55302 19.0074 2.36409 18.9305 2.22328 18.7931C2.15425 18.7257 2.0994 18.6452 2.06196 18.5563C2.02451 18.4675 2.00522 18.372 2.00523 18.2755C2.00524 18.1791 2.02455 18.0836 2.06202 17.9948C2.09948 17.9059 2.15435 17.8254 2.22339 17.7581L4.88667 15.1214L3.86978 14.1212C3.20285 13.4662 2.86888 13.1381 2.82692 12.8051C2.79541 12.5577 2.86143 12.3078 3.011 12.1082C3.21302 11.8382 3.66704 11.7112 4.57506 11.4583C5.16108 11.2954 5.45409 11.2134 5.69911 11.0594C5.88579 10.9421 6.04847 10.7978 6.18715 10.6265C6.36818 10.4025 6.48121 10.1245 6.70627 9.56855L6.76328 9.42656C7.55749 7.46664 7.9546 6.48569 8.71163 6.16677C8.95864 6.06179 9.22465 6.00782 9.49265 6.00785C10.3166 6.00794 11.0756 6.75302 12.5934 8.24618Z" fill="#FF0060"/>
<path fill-rule="evenodd" clip-rule="evenodd" d="M22.0054 17.1642C22.003 17.3596 21.9235 17.5461 21.7841 17.683C21.6447 17.8199 21.4568 17.8962 21.2614 17.8951L12.3294 17.8941C12.134 17.8952 11.9461 17.8189 11.8067 17.6819C11.6673 17.545 11.5878 17.3584 11.5854 17.163C11.5855 16.759 11.9185 16.4311 12.3295 16.4311L21.2615 16.4321C21.6715 16.4321 22.0055 16.7602 22.0054 17.1642Z" fill="#FF0060"/>
</svg>
