<svg width="25" height="25" viewBox="0 0 25 25" fill="none" xmlns="http://www.w3.org/2000/svg">
<path d="M7.53987 15.3244C7.56612 15.4193 7.61082 15.5082 7.67141 15.5859C7.732 15.6635 7.8073 15.7285 7.893 15.7771C7.97871 15.8257 8.07314 15.8569 8.1709 15.869C8.26867 15.881 8.36786 15.8738 8.46281 15.8475C8.55776 15.8212 8.64661 15.7765 8.72428 15.716C8.80196 15.6554 8.86693 15.5801 8.91551 15.4944C8.96408 15.4087 8.9953 15.3142 9.00738 15.2165C9.01946 15.1187 9.01216 15.0195 8.98591 14.9246L7.53987 15.3244ZM3.23499 4.78394C3.13968 4.75609 3.03978 4.74744 2.9411 4.7585C2.84241 4.76956 2.74691 4.80011 2.66012 4.84837C2.57334 4.89664 2.497 4.96165 2.43554 5.03965C2.37408 5.11765 2.32873 5.20707 2.3021 5.30274C2.27548 5.39841 2.26811 5.49841 2.28044 5.59694C2.29277 5.69547 2.32454 5.79058 2.37391 5.87674C2.42329 5.96289 2.48928 6.03839 2.56806 6.09884C2.64684 6.15929 2.73684 6.2035 2.83284 6.22889L3.23499 4.78394ZM20.2218 15.7858C20.3195 15.7632 20.4116 15.7213 20.4928 15.6625C20.574 15.6037 20.6426 15.5292 20.6945 15.4435C20.7464 15.3577 20.7806 15.2625 20.7951 15.1633C20.8095 15.0641 20.804 14.963 20.7787 14.866C20.7535 14.769 20.709 14.6781 20.648 14.5985C20.587 14.519 20.5107 14.4525 20.4235 14.403C20.3364 14.3535 20.2402 14.3219 20.1407 14.3102C20.0411 14.2984 19.9402 14.3068 19.844 14.3347L20.2218 15.7858ZM10.2306 17.6187C10.5405 18.7387 9.86038 19.9216 8.65634 20.2345L9.03319 21.6856C11.0102 21.1728 12.2185 19.1839 11.6767 17.2188L10.2306 17.6187ZM8.65634 20.2345C7.44431 20.5494 6.22838 19.8453 5.9165 18.7152L4.47046 19.1151C5.01025 21.0701 7.06413 22.1973 9.03319 21.6856L8.65634 20.2345ZM5.9165 18.7152C5.60662 17.5952 6.28675 16.4123 7.49078 16.0994L7.11394 14.6494C5.13688 15.1621 3.92767 17.15 4.47046 19.1151L5.9165 18.7152ZM7.49078 16.0994C8.70282 15.7845 9.91874 16.4887 10.2306 17.6187L11.6767 17.2188C11.1369 15.2638 9.08299 14.1366 7.11394 14.6484L7.49078 16.0994ZM8.98591 14.9246L6.83474 7.13432L5.3887 7.53417L7.53987 15.3244L8.98591 14.9246ZM4.93894 5.25612L3.23499 4.78394L2.83284 6.22889L4.53779 6.70208L4.93894 5.25612ZM6.83474 7.13432C6.70765 6.68429 6.46626 6.27481 6.13406 5.94569C5.80185 5.61657 5.39014 5.37901 4.93894 5.25612L4.53979 6.70208C4.96478 6.82012 5.28074 7.14316 5.3887 7.53417L6.83474 7.13432ZM11.1436 18.1448L20.2218 15.7858L19.845 14.3347L10.7657 16.6937L11.1436 18.1448Z" fill="#FF0060"/>
<path d="M9.59955 8.78961C9.11474 7.03456 8.87283 6.15653 9.28491 5.46558C9.69598 4.77362 10.601 4.53872 12.4111 4.06791L14.3311 3.57012C16.1412 3.10031 17.0462 2.86441 17.7591 3.26348C18.4721 3.66356 18.715 4.54058 19.1988 6.29664L19.7136 8.15869C20.1984 9.91374 20.4413 10.7918 20.0293 11.4837C19.6172 12.1747 18.7122 12.4106 16.9021 12.8804L14.9821 13.3792C13.172 13.849 12.267 14.0839 11.554 13.6848C10.8411 13.2847 10.5992 12.4077 10.1144 10.6527L9.59955 8.78961Z" stroke="#FF0060" stroke-width="1.5"/>
</svg>
