<svg width="25" height="25" viewBox="0 0 25 25" fill="none" xmlns="http://www.w3.org/2000/svg">
<path fill-rule="evenodd" clip-rule="evenodd" d="M10.3299 2.28148L13.7099 2.28184C13.9269 2.28186 14.1159 2.28188 14.2939 2.3099C14.6406 2.36548 14.9695 2.50144 15.2542 2.70689C15.539 2.91234 15.7717 3.18158 15.9338 3.49308C16.0178 3.65309 16.0767 3.83209 16.1457 4.0371L16.2567 4.37211L16.2867 4.45712C16.3771 4.70828 16.5456 4.92388 16.7675 5.07236C16.9893 5.22084 17.2529 5.29439 17.5196 5.28225L20.5196 5.28257C20.7185 5.28259 20.9092 5.36163 21.0499 5.50229C21.1905 5.64296 21.2695 5.83374 21.2695 6.03265C21.2695 6.23156 21.1904 6.42232 21.0498 6.56295C20.9091 6.70359 20.7183 6.78259 20.5194 6.78257L3.51942 6.78075C3.3205 6.78073 3.12975 6.70169 2.98911 6.56102C2.84847 6.42036 2.76948 6.22958 2.7695 6.03067C2.76952 5.83176 2.84856 5.641 2.98922 5.50036C3.12989 5.35973 3.32066 5.28073 3.51958 5.28075L6.60958 5.28108C6.87668 5.2747 7.13471 5.18291 7.34583 5.01916C7.55695 4.85541 7.71005 4.62833 7.78267 4.37121L7.89471 4.03622C7.96273 3.83123 8.02175 3.65223 8.10477 3.49224C8.26699 3.18066 8.49992 2.91139 8.7849 2.70599C9.06988 2.50059 9.399 2.36478 9.74589 2.30942C9.9239 2.28144 10.1129 2.28146 10.3289 2.28148M9.02658 5.28134C9.09585 5.14339 9.15437 5.00031 9.20162 4.85336L9.30165 4.55337C9.39268 4.28038 9.41369 4.22538 9.43469 4.18538C9.48869 4.0814 9.5663 3.99151 9.6613 3.92292C9.75629 3.85434 9.86604 3.80897 9.98174 3.79044C10.1121 3.77891 10.243 3.77592 10.3737 3.78148L13.6637 3.78183C13.9517 3.78187 14.0117 3.78387 14.0557 3.79188C14.1713 3.81032 14.281 3.85556 14.376 3.92399C14.471 3.99242 14.5486 4.08212 14.6027 4.18594C14.6237 4.22594 14.6447 4.28094 14.7357 4.55495L14.8356 4.85496L14.8746 4.96696C14.9139 5.0763 14.9593 5.18131 15.0106 5.28198L9.02658 5.28134Z" fill="#FF0060"/>
<path d="M5.93422 8.48099C5.92098 8.28248 5.82943 8.09735 5.67969 7.96634C5.52996 7.83533 5.33432 7.76917 5.1358 7.78241C4.93728 7.79565 4.75216 7.88721 4.62115 8.03694C4.49014 8.18667 4.42397 8.38232 4.43721 8.58083L4.90047 15.5329C4.98533 16.8149 5.05422 17.8509 5.21614 18.6649C5.38505 19.5099 5.67097 20.216 6.26291 20.769C6.85485 21.3221 7.57783 21.5622 8.43281 21.6733C9.2548 21.7814 10.2928 21.7815 11.5788 21.7816L12.4578 21.7817C13.7428 21.7818 14.7818 21.7819 15.6038 21.674C16.4578 21.5631 17.1819 21.3242 17.7739 20.7703C18.365 20.2173 18.651 19.5104 18.8201 18.6664C18.9822 17.8534 19.0503 16.8164 19.1365 15.5344L19.6012 8.58246C19.6145 8.38394 19.5484 8.18828 19.4174 8.03852C19.2864 7.88876 19.1013 7.79716 18.9028 7.78388C18.7043 7.7706 18.5086 7.83672 18.3589 7.9677C18.2091 8.09868 18.1175 8.28378 18.1042 8.4823L17.6435 15.3822C17.5533 16.7292 17.4892 17.6672 17.3492 18.3722C17.2121 19.0572 17.0221 19.4192 16.749 19.6752C16.475 19.9311 16.101 20.0971 15.409 20.187C14.696 20.2799 13.756 20.2818 12.405 20.2817L11.631 20.2816C10.281 20.2815 9.34096 20.2794 8.62697 20.1863C7.93498 20.0962 7.561 19.9302 7.28703 19.6741C7.01406 19.4181 6.82409 19.0561 6.68717 18.3721C6.54724 17.6661 6.48334 16.7281 6.39349 15.38L5.93422 8.48099Z" fill="#FF0060"/>
<path d="M9.44403 10.2854C9.64187 10.2656 9.83948 10.3251 9.99341 10.451C10.1474 10.5768 10.245 10.7586 10.265 10.9565L10.7644 15.9565C10.779 16.1516 10.7169 16.3447 10.5911 16.4946C10.4654 16.6444 10.2861 16.7393 10.0915 16.7588C9.89681 16.7784 9.70222 16.7211 9.54921 16.5992C9.39619 16.4773 9.29686 16.3004 9.2724 16.1064L8.77294 11.1063C8.75313 10.9085 8.8127 10.7108 8.93854 10.5569C9.06438 10.403 9.2462 10.3053 9.44403 10.2854ZM14.594 10.2859C14.7917 10.3059 14.9733 10.4035 15.0991 10.5572C15.2249 10.711 15.2845 10.9083 15.2649 11.106L14.7644 16.1059C14.7396 16.2997 14.6402 16.4761 14.4873 16.5976C14.3345 16.7192 14.1402 16.7763 13.9459 16.7569C13.7515 16.7375 13.5724 16.643 13.4467 16.4936C13.3209 16.3442 13.2584 16.1516 13.2724 15.9568L13.773 10.9568C13.7929 10.7592 13.8905 10.5776 14.0442 10.4518C14.198 10.326 14.3964 10.2664 14.594 10.2859Z" fill="#FF0060"/>
</svg>
